<?xml version="1.0" encoding="utf-8"?>
<!-- Generator: Adobe Illustrator 18.1.1, SVG Export Plug-In . SVG Version: 6.00 Build 0)  -->
<svg version="1.1" id="Слой_1" xmlns="http://www.w3.org/2000/svg" xmlns:xlink="http://www.w3.org/1999/xlink" x="0px" y="0px"
	 viewBox="0 0 200 44" enable-background="new 0 0 200 44" xml:space="preserve">
<rect x="157.5" fill-rule="evenodd" clip-rule="evenodd" fill="#E30C19" width="42.5" height="43.2"/>
<path fill="#FFFFFF" d="M169.5,35c-0.5-2.8,0.6-5.3,3.1-5.8c2.5-0.6,4.5,0.6,5,3.3c0.4,1.8-0.2,3.1-1.6,3.9
	c-0.6,1.1,0.6,2.2,2.2,1.8c2.8-0.6,3.2-4.8,2.8-7.1c-0.9-5.3-3.6-9-8.3-8.9h-4.2c-0.7,0.1-0.7-0.9-0.2-1.1c1.6-0.3,3.8-0.8,3.9-2.7
	c-0.4-3.5-0.4-5.9,0.9-9.1c1.3-3.2,4.1-5.2,7.3-5.9c2.1-0.5,3.9-0.3,5.3,0.7c1.5,1,2.4,2.1,2.7,4.1c0.4,3.2-0.7,5.3-2.9,5.8
	c-2.5,0.6-4.5-0.6-5-3.3c-0.4-1.8,0.2-3.1,1.6-3.9c0.3-1.4-0.6-2.2-2.2-1.8c-2.8,0.6-3.7,5.5-3.3,7.8c0.9,5.3,3.8,7.9,8.4,7.8l3.9,0
	c0.9-0.2,0.8,0.9,0.3,0.9c-1.9,0.2-3.5,1.8-3.5,3.5c0.4,5.1,0.4,6.1-0.9,9.4c-1.3,3.2-3.6,4.7-6.5,5.4c-2.1,0.5-4.5,0.3-6-0.7
	C170.9,38.2,169.9,37,169.5,35z"/>
<path fill-rule="evenodd" clip-rule="evenodd" fill="#444444" d="M143.6,33.1c0,3-0.9,5.5-2.6,7.3c-1.7,1.9-3.9,2.8-6.6,2.8
	c-2.8,0-4.6-0.7-7.1-1.7c-0.5-0.1-0.8,0.2-0.9,0.8H126v-8.7c0-0.3,0.3-0.5,0.6-0.5c0.5,2.4,1.4,4.4,2.7,6.2c1.4,1.9,3.3,2.8,5.7,2.8
	c1.4,0,2.5-0.5,3.4-1.6c0.8-1,1.3-2.5,1.3-4.3c0-2.5-1.2-4.3-3.5-5.3c-2.2-0.9-4.4-1.7-6.6-2.6c-2.4-1.3-3.6-3.9-3.6-7.4
	c0-2.9,0.8-5.2,2.4-6.8c1.5-1.7,3.5-2.5,5.9-2.5c2.1,0,4.2,0.6,6.2,1.2c0.6,0.1,0.8-0.5,0.8-0.9h0.4v7.4c0,0.2-0.2,0.4-0.5,0.4
	c-0.5-1.9-1.3-3.6-2.4-5c-1.2-1.6-2.8-2.3-4.7-2.3c-1.4,0-2.4,0.5-3.2,1.4c-0.8,1-1.2,2.2-1.2,3.8c0,2.3,1.2,4,3.6,5.1
	c2.2,0.9,4.4,1.8,6.6,2.6C142.3,26.7,143.7,29.5,143.6,33.1z M106,42.8c0,0.3-0.2,0.5-0.4,0.5H92.1c-0.2,0-0.4-0.1-0.4-0.5
	c0-0.4,0.1-0.6,0.4-0.6l2.3,0c0.7,0,1.1-0.5,1.1-1.4V6.8c0-0.9-0.4-1.4-1.3-1.4h-2c-0.5,0-0.7-0.2-0.7-0.6c0-0.2,0.1-0.5,0.5-0.6
	c1-0.1,1.7-0.1,2.3-0.2c1.5-0.2,6.9-0.8,7.8-1.7v38.5c0,0.9,0.4,1.4,1.1,1.4l2.3,0C105.9,42.2,106,42.4,106,42.8z M54.7,33.8V23.5
	c0-3-0.5-5.4-1.4-7.2c-1-1.8-2.2-2.7-3.7-2.7c-1.8,0-3.1,1.1-4,3.4c-0.8,2.2-1.3,5.5-1.3,9.8v2.2c0,4.1,0.4,7.2,1.3,9.3
	c0.8,2.2,2.2,3.3,4.1,3.3c1.1,0,2.2-0.8,3.3-2.5C54.1,37.2,54.7,35.5,54.7,33.8z M65.2,43.2l-10.4,0v-4c-1.1,1.6-2.3,2.8-3.6,3.5
	c-1.3,0.7-2.6,1.1-4,1.1c-2.9,0-5.3-1.4-7.2-4.3c-1.9-2.8-2.8-6.4-2.8-10.8c0-4.6,1.1-8.5,3.4-11.6c2.2-3.1,5-4.7,8.3-4.7
	c1.2,0,2.3,0.2,3.2,0.7c1,0.5,1.8,1.3,2.5,2.4V6.9c0-0.9-0.4-1.4-1.3-1.4h-2c-0.5,0-0.7-0.2-0.7-0.6c0-0.3,0.3-0.6,1.1-0.6
	c1.6-0.1,8.3-0.7,9.5-1.9V39c0,1.4-0.3,3.2,2.1,3.2h1.4C65.6,42.2,65.7,43.1,65.2,43.2z M34.6,42.8c0,0.3-0.1,0.5-0.4,0.5H20.6
	c-0.3,0-0.4-0.1-0.4-0.5c0-0.4,0.1-0.6,0.4-0.6l2.3,0c0.7,0,1.2-0.5,1.2-1.4V16.3c0-0.9-0.4-1.4-1.2-1.4h-2c-0.5,0-0.8-0.2-0.8-0.6
	c0-0.3,0.2-0.5,0.4-0.5c1.8-0.3,8.5-0.2,10.1-1.5v28.6c0,0.9,0.4,1.4,1.1,1.4l2.3,0C34.4,42.2,34.6,42.4,34.6,42.8z M31.1,4.5
	c0,2.2-1.7,3.9-3.9,3.9c-2.2,0-3.9-1.6-3.9-3.9c0-2.2,1.7-3.9,3.9-3.9C29.4,0.7,31.1,2.3,31.1,4.5z M82.4,25.4l-0.1-2.5
	c-0.1-3.1-0.3-5.5-0.9-7.1c-0.6-1.6-1.6-2.4-2.8-2.4c-1.4,0-2.4,0.9-3.2,2.7c-0.8,1.9-1.1,4.4-1.1,7.6v1.7H82.4z M68,33.3
	c-0.4-1.6-0.6-3.4-0.6-5.3c0-4.2,1.1-7.9,3.3-11c2.2-3.1,4.9-4.7,8.2-4.7c2.8,0,5.2,1.3,7.2,4.1c2,2.7,2.9,5.9,2.9,9.6
	c0,0.3-0.1,0.4-0.3,0.4H74.4v3.2c0,1.3,0.1,2.5,0.2,3.7H68z M122.5,42.8c0,0.3-0.1,0.5-0.4,0.5h-13.5c-0.3,0-0.4-0.1-0.4-0.5
	c0-0.4,0.2-0.6,0.5-0.6l2.3,0c0.7,0,1.2-0.5,1.2-1.4V16.3c0-0.9-0.4-1.4-1.2-1.4h-2c-0.5,0-0.8-0.2-0.8-0.6c0-0.3,0.2-0.5,0.4-0.5
	c1.8-0.3,8.5-0.2,10.1-1.5v28.6c0,0.9,0.4,1.4,1.1,1.4l2.3,0C122.4,42.2,122.5,42.4,122.5,42.8z M119.2,4.5c0,2.2-1.7,3.9-3.9,3.9
	c-2.2,0-3.8-1.6-3.8-3.9c0-2.2,1.7-3.9,3.8-3.9C117.5,0.6,119.2,2.2,119.2,4.5z M18.1,5.4c0,2.4-1.6,3.4-3,3.5
	C13.4,8.9,11.8,8,11.8,6c0-1.4,0.7-2.3,1.7-2.6c0.3-0.8,0-1.6-1.2-1.6C10.3,1.9,9,5.1,9,6.6c0,2.3,0.2,6.8,3.3,7h3
	c0.9,0,0.8,1.2,0,1.3l-4.6,0v25.8c0,0.9,0.4,1.3,1.2,1.4l2.4,0c0.3,0,0.4,0.2,0.4,0.6c0,0.3-0.2,0.5-0.4,0.5H0.6
	c-0.3,0-0.4-0.1-0.4-0.5c0-0.4,0.2-0.6,0.4-0.6l2.4,0c0.8,0,1.2-0.5,1.2-1.4V14.9H0.4c-0.6,0.1-0.6-1,0-1.1c0.6,0.1,3.6-0.1,3.8-1.5
	c0.2-3.7,1.1-6.5,2.6-8.6c1.4-2.1,3.7-3.1,6.1-3.1C15.7,0.7,18.1,2.4,18.1,5.4z"/>
<path fill-rule="evenodd" clip-rule="evenodd" fill="#444444" d="M87.1,39.6c0-0.2,0-0.3,0-0.5c0-0.2,0-0.3-0.1-0.4
	c0-0.1-0.1-0.2-0.2-0.3c-0.1-0.1-0.2-0.1-0.3-0.1c-0.2,0-0.4,0.1-0.5,0.3c-0.1,0.2-0.2,0.6-0.2,1L87.1,39.6z M88.6,41.2
	c-0.1,0.2-0.2,0.3-0.3,0.4c-0.1,0.1-0.3,0.3-0.5,0.4c-0.2,0.1-0.4,0.2-0.5,0.2c-0.2,0.1-0.4,0.1-0.6,0.1c-0.4,0-0.7-0.1-1-0.2
	c-0.3-0.1-0.5-0.3-0.7-0.5c-0.2-0.2-0.3-0.4-0.4-0.7c-0.1-0.3-0.1-0.6-0.1-0.9c0-0.3,0-0.6,0.1-0.8c0.1-0.3,0.2-0.5,0.4-0.7
	c0.2-0.2,0.4-0.4,0.7-0.5c0.3-0.1,0.6-0.2,0.9-0.2c0.4,0,0.7,0.1,0.9,0.1c0.2,0.1,0.4,0.2,0.6,0.4c0.1,0.2,0.3,0.3,0.3,0.6
	c0.1,0.2,0.1,0.4,0.1,0.7V40h-2.7c0,0.6,0.1,1,0.3,1.3c0.2,0.3,0.5,0.4,1,0.4c0.2,0,0.5-0.1,0.7-0.2c0.2-0.1,0.4-0.3,0.5-0.5
	L88.6,41.2z M83.9,42.2h-2.5v-0.3l0.2,0c0.1,0,0.1,0,0.2,0c0.1,0,0.1-0.1,0.2-0.1c0-0.1,0.1-0.1,0.1-0.2v-4.6c0-0.1,0-0.2-0.1-0.3
	c0-0.1-0.1-0.2-0.2-0.2c-0.1,0-0.1-0.1-0.2-0.1c-0.1,0-0.2-0.1-0.3-0.1v-0.3l2-0.1l0.1,0.1v5.6c0,0.1,0,0.2,0.1,0.2
	c0,0.1,0.1,0.1,0.2,0.1c0.1,0,0.1,0,0.2,0.1c0.1,0,0.1,0,0.2,0V42.2z M81.4,38.3c-0.1,0-0.2,0.1-0.4,0.1c-0.1,0.1-0.2,0.2-0.3,0.4
	c-0.2,0.5-0.5,1-0.7,1.6c-0.2,0.6-0.5,1.2-0.8,1.9c-0.2,0.4-0.3,0.7-0.5,0.9c-0.1,0.2-0.3,0.4-0.4,0.5c-0.1,0.1-0.3,0.2-0.4,0.2
	C77.8,44,77.7,44,77.5,44c-0.2,0-0.5-0.1-0.6-0.2c-0.2-0.1-0.2-0.3-0.2-0.5c0-0.1,0-0.1,0-0.2c0-0.1,0.1-0.1,0.1-0.2
	c0-0.1,0.1-0.1,0.2-0.2c0.1,0,0.2-0.1,0.3-0.1c0.1,0,0.3,0.1,0.4,0.2c0.1,0.1,0.3,0.2,0.4,0.4c0.1-0.1,0.2-0.2,0.3-0.4
	c0.1-0.2,0.2-0.4,0.3-0.6c-0.3-0.7-0.6-1.3-0.9-1.8l-0.8-1.7c-0.1-0.1-0.2-0.2-0.3-0.3c-0.1-0.1-0.2-0.1-0.4-0.1V38h2.5v0.3
	c-0.1,0-0.2,0-0.3,0.1c-0.1,0-0.2,0.1-0.2,0.1l0,0.1l0.1,0.1l0.4,0.8l0.6,1.2l0.4-1l0.3-0.8c0-0.1,0-0.1,0-0.2v-0.1
	c0-0.1,0-0.1-0.1-0.1c0,0-0.1-0.1-0.2-0.1c-0.1,0-0.1,0-0.2-0.1l-0.2,0V38h1.7V38.3z M76.6,42c-0.2,0.1-0.4,0.1-0.6,0.2
	c-0.2,0.1-0.4,0.1-0.7,0.1c-0.4,0-0.7-0.1-0.9-0.3c-0.2-0.2-0.3-0.5-0.3-0.9v-2.6h-0.7v-0.4h0.7v-1.3h1.3v1.3h1.1v0.4h-1.1v2.3
	c0,0.3,0,0.6,0.1,0.7c0.1,0.1,0.2,0.2,0.5,0.2l0.3,0c0.1,0,0.2,0,0.3,0V42z M71.2,42.3c-0.3,0-0.5,0-0.8-0.1
	c-0.2-0.1-0.4-0.2-0.6-0.2l-0.1,0.3h-0.3l-0.1-1.5h0.3c0,0.1,0.1,0.3,0.2,0.4c0.1,0.1,0.2,0.3,0.3,0.4c0.1,0.1,0.3,0.2,0.4,0.3
	c0.2,0.1,0.3,0.1,0.5,0.1c0.2,0,0.4-0.1,0.5-0.2c0.1-0.1,0.2-0.2,0.2-0.4c0-0.1,0-0.2-0.1-0.3c0-0.1-0.1-0.1-0.2-0.2
	c-0.1-0.1-0.2-0.1-0.3-0.1l-0.5-0.1c-0.2-0.1-0.3-0.1-0.5-0.2c-0.1-0.1-0.3-0.1-0.4-0.3c-0.1-0.1-0.2-0.2-0.3-0.4
	c-0.1-0.2-0.1-0.3-0.1-0.5c0-0.4,0.2-0.7,0.5-1c0.3-0.2,0.7-0.4,1.2-0.4c0.2,0,0.5,0,0.7,0.1c0.2,0.1,0.4,0.1,0.5,0.2l0.1-0.2h0.3
	l0.1,1.4h-0.3c-0.1-0.3-0.2-0.5-0.5-0.7c-0.2-0.2-0.5-0.3-0.7-0.3c-0.2,0-0.4,0-0.5,0.1c-0.1,0.1-0.2,0.2-0.2,0.4
	c0,0.2,0.1,0.4,0.3,0.5c0.2,0.1,0.4,0.2,0.7,0.3c0.5,0.1,0.8,0.3,1.1,0.5c0.2,0.2,0.3,0.5,0.3,0.8c0,0.5-0.2,0.8-0.5,1.1
	C72.2,42.2,71.8,42.3,71.2,42.3z"/>
</svg>
