<?xml version="1.0" encoding="utf-8"?>
<!-- Generator: Adobe Illustrator 18.1.1, SVG Export Plug-In . SVG Version: 6.00 Build 0)  -->
<svg version="1.1" id="Слой_1" xmlns="http://www.w3.org/2000/svg" xmlns:xlink="http://www.w3.org/1999/xlink" x="0px" y="0px"
	 viewBox="0 0 595.4 131" enable-background="new 0 0 595.4 131" xml:space="preserve">
<rect x="468.9" y="0" fill="#D24A43" width="126.5" height="128.6"/>
<path fill="#FFFFFF" d="M504.6,104.2c-1.5-8.3,1.8-15.8,9.2-17.3c7.4-1.8,13.4,1.8,14.9,9.8c1.2,5.4-0.6,9.2-4.8,11.6
	c-1.8,3.3,1.8,6.5,6.5,5.4c8.3-1.8,9.5-14.3,8.3-21.1c-2.7-15.8-10.7-26.8-24.7-26.5h-12.5c-2.1,0.3-2.1-2.7-0.6-3.3
	c4.8-0.9,11.3-2.4,11.6-8c-1.2-10.4-1.2-17.6,2.7-27.1c3.9-9.5,12.2-15.5,21.7-17.6c6.3-1.5,11.6-0.9,15.8,2.1c4.5,3,7.1,6.3,8,12.2
	c1.2,9.5-2.1,15.8-8.6,17.3c-7.4,1.8-13.4-1.8-14.9-9.8c-1.2-5.4,0.6-9.2,4.8-11.6c0.9-4.2-1.8-6.5-6.5-5.4
	c-8.3,1.8-11,16.4-9.8,23.2c2.7,15.8,11.3,23.5,25,23.2h11.6c2.7-0.6,2.4,2.7,0.9,2.7c-5.7,0.6-10.4,5.4-10.4,10.4
	c1.2,15.2,1.2,18.2-2.7,28c-3.9,9.5-10.7,14-19.3,16.1c-6.3,1.5-13.4,0.9-17.9-2.1C508.8,113.7,505.8,110.1,504.6,104.2z"/>
<path fill="#434344" d="M427.6,98.5c0,8.9-2.7,16.4-7.7,21.7c-5.1,5.7-11.6,8.3-19.6,8.3c-8.3,0-13.7-2.1-21.1-5.1
	c-1.5-0.3-2.4,0.6-2.7,2.4h-1.2V100c0-0.9,0.9-1.5,1.8-1.5c1.5,7.1,4.2,13.1,8,18.5c4.2,5.7,9.8,8.3,17,8.3c4.2,0,7.4-1.5,10.1-4.8
	c2.4-3,3.9-7.4,3.9-12.8c0-7.4-3.6-12.8-10.4-15.8c-6.5-2.7-13.1-5.1-19.6-7.7c-7.1-3.9-10.7-11.6-10.7-22c0-8.6,2.4-15.5,7.1-20.2
	c4.5-5.1,10.4-7.4,17.6-7.4c6.3,0,12.5,1.8,18.5,3.6c1.8,0.3,2.4-1.5,2.4-2.7h1.2v22c0,0.6-0.6,1.2-1.5,1.2
	c-1.5-5.7-3.9-10.7-7.1-14.9c-3.6-4.8-8.3-6.8-14-6.8c-4.2,0-7.1,1.5-9.5,4.2c-2.4,3-3.6,6.5-3.6,11.3c0,6.8,3.6,11.9,10.7,15.2
	c6.5,2.7,13.1,5.4,19.6,7.7C423.7,79.5,427.9,87.8,427.6,98.5z M315.6,127.4c0,0.9-0.6,1.5-1.2,1.5h-40.2c-0.6,0-1.2-0.3-1.2-1.5
	s0.3-1.8,1.2-1.8h6.8c2.1,0,3.3-1.5,3.3-4.2V20.2c0-2.7-1.2-4.2-3.9-4.2h-6c-1.5,0-2.1-0.6-2.1-1.8c0-0.6,0.3-1.5,1.5-1.8
	c3-0.3,5.1-0.3,6.8-0.6c4.5-0.6,20.5-2.4,23.2-5.1v114.6c0,2.7,1.2,4.2,3.3,4.2h6.8C315.3,125.6,315.6,126.2,315.6,127.4z
	 M163,100.6V69.9c0-8.9-1.5-16.1-4.2-21.4c-3-5.4-6.5-8-11-8c-5.4,0-9.2,3.3-11.9,10.1c-2.4,6.5-3.9,16.4-3.9,29.2v6.5
	c0,12.2,1.2,21.4,3.9,27.7c2.4,6.5,6.5,9.8,12.2,9.8c3.3,0,6.5-2.4,9.8-7.4C161.2,110.7,163,105.7,163,100.6z M194.2,128.6h-31
	v-11.9c-3.3,4.8-6.8,8.3-10.7,10.4s-7.7,3.3-11.9,3.3c-8.6,0-15.8-4.2-21.4-12.8c-5.7-8.3-8.3-19-8.3-32.1
	c0-13.7,3.3-25.3,10.1-34.5c6.5-9.2,14.9-14,24.7-14c3.6,0,6.8,0.6,9.5,2.1c3,1.5,5.4,3.9,7.4,7.1V20.5c0-2.7-1.2-4.2-3.9-4.2h-6
	c-1.5,0-2.1-0.6-2.1-1.8c0-0.9,0.9-1.8,3.3-1.8c4.8-0.3,24.7-2.1,28.3-5.7v108.9c0,4.2-0.9,9.5,6.3,9.5h4.2
	C195.4,125.6,195.7,128.3,194.2,128.6z M103.1,127.4c0,0.9-0.3,1.5-1.2,1.5H61.5c-0.9,0-1.2-0.3-1.2-1.5s0.3-1.8,1.2-1.8h6.8
	c2.1,0,3.6-1.5,3.6-4.2V48.5c0-2.7-1.2-4.2-3.6-4.2h-6c-1.5,0-2.4-0.6-2.4-1.8c0-0.9,0.6-1.5,1.2-1.5c5.4-0.9,25.3-0.6,30.1-4.5
	v85.1c0,2.7,1.2,4.2,3.3,4.2h6.8C102.5,125.6,103.1,126.2,103.1,127.4z M92.7,13.4c0,6.5-5.1,11.6-11.6,11.6s-11.6-4.8-11.6-11.6
	c0-6.5,5.1-11.6,11.6-11.6C87.7,2.1,92.7,6.8,92.7,13.4z M245.4,75.6l-0.3-7.4c-0.3-9.2-0.9-16.4-2.7-21.1c-1.8-4.8-4.8-7.1-8.3-7.1
	c-4.2,0-7.1,2.7-9.5,8c-2.4,5.7-3.3,13.1-3.3,22.6v5.1C221.3,75.6,245.4,75.6,245.4,75.6z M202.5,99.1c-1.2-4.8-1.8-10.1-1.8-15.8
	c0-12.5,3.3-23.5,9.8-32.7c6.5-9.2,14.6-14,24.4-14c8.3,0,15.5,3.9,21.4,12.2c6,8,8.6,17.6,8.6,28.6c0,0.9-0.3,1.2-0.9,1.2h-42.6
	v9.5c0,3.9,0.3,7.4,0.6,11H202.5z M364.8,127.4c0,0.9-0.3,1.5-1.2,1.5h-40.2c-0.9,0-1.2-0.3-1.2-1.5s0.6-1.8,1.5-1.8h6.8
	c2.1,0,3.6-1.5,3.6-4.2V48.5c0-2.7-1.2-4.2-3.6-4.2h-6c-1.5,0-2.4-0.6-2.4-1.8c0-0.9,0.6-1.5,1.2-1.5c5.4-0.9,25.3-0.6,30.1-4.5
	v85.1c0,2.7,1.2,4.2,3.3,4.2h6.8C364.5,125.6,364.8,126.2,364.8,127.4z M354.9,13.4c0,6.5-5.1,11.6-11.6,11.6
	c-6.5,0-11.3-4.8-11.3-11.6c0-6.5,5.1-11.6,11.3-11.6C349.9,1.8,354.9,6.5,354.9,13.4z M54,16.1c0,7.1-4.8,10.1-8.9,10.4
	c-5.1,0-9.8-2.7-9.8-8.6c0-4.2,2.1-6.8,5.1-7.7c0.9-2.4,0-4.8-3.6-4.8c-6,0.3-9.8,9.8-9.8,14.3c0,6.8,0.6,20.2,9.8,20.8h8.9
	c2.7,0,2.4,3.6,0,3.9H32v76.8c0,2.7,1.2,3.9,3.6,4.2h7.1c0.9,0,1.2,0.6,1.2,1.8c0,0.9-0.6,1.5-1.2,1.5H1.9c-0.9,0-1.2-0.3-1.2-1.5
	c0-1.2,0.6-1.8,1.2-1.8h7.1c2.4,0,3.6-1.5,3.6-4.2V44.3H1.3c-1.8,0.3-1.8-3,0-3.3c1.8,0.3,10.7-0.3,11.3-4.5
	c0.6-11,3.3-19.3,7.7-25.6c4.2-6.3,11-9.2,18.2-9.2C46.9,2.1,54,7.1,54,16.1z"/>
<path fill="#434344" d="M259.4,117.9c0-0.6,0-0.9,0-1.5s0-0.9-0.3-1.2c0-0.3-0.3-0.6-0.6-0.9c-0.3-0.3-0.6-0.3-0.9-0.3
	c-0.6,0-1.2,0.3-1.5,0.9c-0.3,0.6-0.6,1.8-0.6,3H259.4z M263.9,122.6c-0.3,0.6-0.6,0.9-0.9,1.2c-0.3,0.3-0.9,0.9-1.5,1.2
	c-0.6,0.3-1.2,0.6-1.5,0.6c-0.6,0.3-1.2,0.3-1.8,0.3c-1.2,0-2.1-0.3-3-0.6c-0.9-0.3-1.5-0.9-2.1-1.5c-0.6-0.6-0.9-1.2-1.2-2.1
	c-0.3-0.9-0.3-1.8-0.3-2.7c0-0.9,0-1.8,0.3-2.4c0.3-0.9,0.6-1.5,1.2-2.1c0.6-0.6,1.2-1.2,2.1-1.5c0.9-0.3,1.8-0.6,2.7-0.6
	c1.2,0,2.1,0.3,2.7,0.3c0.6,0.3,1.2,0.6,1.8,1.2c0.3,0.6,0.9,0.9,0.9,1.8c0.3,0.6,0.3,1.2,0.3,2.1v1.2h-8c0,1.8,0.3,3,0.9,3.9
	c0.6,0.9,1.5,1.2,3,1.2c0.6,0,1.5-0.3,2.1-0.6c0.6-0.3,1.2-0.9,1.5-1.5L263.9,122.6z M249.9,125.6h-7.4v-0.9h0.6c0.3,0,0.3,0,0.6,0
	c0.3,0,0.3-0.3,0.6-0.3c0-0.3,0.3-0.3,0.3-0.6v-13.7c0-0.3,0-0.6-0.3-0.9c0-0.3-0.3-0.6-0.6-0.6c-0.3,0-0.3-0.3-0.6-0.3
	s-0.6-0.3-0.9-0.3v-0.9l6-0.3l0.3,0.3v16.7c0,0.3,0,0.6,0.3,0.6c0,0.3,0.3,0.3,0.6,0.3s0.3,0,0.6,0.3c0.3,0,0.3,0,0.6,0v0.6H249.9z
	 M242.4,114c-0.3,0-0.6,0.3-1.2,0.3c-0.3,0.3-0.6,0.6-0.9,1.2c-0.6,1.5-1.5,3-2.1,4.8c-0.6,1.8-1.5,3.6-2.4,5.7
	c-0.6,1.2-0.9,2.1-1.5,2.7c-0.3,0.6-0.9,1.2-1.2,1.5c-0.3,0.3-0.9,0.6-1.2,0.6c-0.3,0.3-0.6,0.3-1.2,0.3c-0.6,0-1.5-0.3-1.8-0.6
	c-0.6-0.3-0.6-0.9-0.6-1.5c0-0.3,0-0.3,0-0.6c0-0.3,0.3-0.3,0.3-0.6c0-0.3,0.3-0.3,0.6-0.6c0.3,0,0.6-0.3,0.9-0.3
	c0.3,0,0.9,0.3,1.2,0.6c0.3,0.3,0.9,0.6,1.2,1.2c0.3-0.3,0.6-0.6,0.9-1.2c0.3-0.6,0.6-1.2,0.9-1.8c-0.9-2.1-1.8-3.9-2.7-5.4
	l-2.4-5.1c-0.3-0.3-0.6-0.6-0.9-0.9c-0.3-0.3-0.6-0.3-1.2-0.3v-0.9h7.4v0.9c-0.3,0-0.6,0-0.9,0.3c-0.3,0-0.6,0.3-0.6,0.3v0.3
	l0.3,0.3l1.2,2.4l1.8,3.6l1.2-3l0.9-2.4c0-0.3,0-0.3,0-0.6v-0.3c0-0.3,0-0.3-0.3-0.3c0,0-0.3-0.3-0.6-0.3c-0.3,0-0.3,0-0.6-0.3h-0.6
	v-0.9h5.1v0.9H242.4z M228.1,125c-0.6,0.3-1.2,0.3-1.8,0.6c-0.6,0.3-1.2,0.3-2.1,0.3c-1.2,0-2.1-0.3-2.7-0.9
	c-0.6-0.6-0.9-1.5-0.9-2.7v-7.7h-2.1v-1.2h2.1v-3.9h3.9v3.9h3.3v1.2h-3.3v6.8c0,0.9,0,1.8,0.3,2.1c0.3,0.3,0.6,0.6,1.5,0.6h0.9
	c0.3,0,0.6,0,0.9,0L228.1,125L228.1,125z M212.1,125.9c-0.9,0-1.5,0-2.4-0.3c-0.6-0.3-1.2-0.6-1.8-0.6l-0.3,0.9h-0.9l-0.3-4.5h0.9
	c0,0.3,0.3,0.9,0.6,1.2c0.3,0.3,0.6,0.9,0.9,1.2c0.3,0.3,0.9,0.6,1.2,0.9c0.6,0.3,0.9,0.3,1.5,0.3c0.6,0,1.2-0.3,1.5-0.6
	c0.3-0.3,0.6-0.6,0.6-1.2c0-0.3,0-0.6-0.3-0.9c0-0.3-0.3-0.3-0.6-0.6c-0.3-0.3-0.6-0.3-0.9-0.3l-1.5-0.3c-0.6-0.3-0.9-0.3-1.5-0.6
	c-0.3-0.3-0.9-0.3-1.2-0.9c-0.3-0.3-0.6-0.6-0.9-1.2c-0.3-0.6-0.3-0.9-0.3-1.5c0-1.2,0.6-2.1,1.5-3c0.9-0.6,2.1-1.2,3.6-1.2
	c0.6,0,1.5,0,2.1,0.3c0.6,0.3,1.2,0.3,1.5,0.6l0.3-0.6h0.9l0.3,4.2h-0.9c-0.3-0.9-0.6-1.5-1.5-2.1c-0.6-0.6-1.5-0.9-2.1-0.9
	c-0.6,0-1.2,0-1.5,0.3c-0.3,0.3-0.6,0.6-0.6,1.2s0.3,1.2,0.9,1.5c0.6,0.3,1.2,0.6,2.1,0.9c1.5,0.3,2.4,0.9,3.3,1.5
	c0.6,0.6,0.9,1.5,0.9,2.4c0,1.5-0.6,2.4-1.5,3.3C215,125.6,213.9,125.9,212.1,125.9z"/>
</svg>
