<?xml version="1.0" encoding="utf-8"?>
<!-- Generator: Adobe Illustrator 18.1.1, SVG Export Plug-In . SVG Version: 6.00 Build 0)  -->
<svg version="1.1" id="Слой_1" xmlns="http://www.w3.org/2000/svg" xmlns:xlink="http://www.w3.org/1999/xlink" x="0px" y="0px"
	 viewBox="0 0 42.5 43.2" enable-background="new 0 0 42.5 43.2" xml:space="preserve">
<rect x="0" fill-rule="evenodd" clip-rule="evenodd" fill="#D24A43" width="42.5" height="43.2"/>
<path fill="#FFFFFF" d="M12.1,35c-0.5-2.8,0.6-5.3,3.1-5.8c2.5-0.6,4.5,0.6,5,3.3c0.4,1.8-0.2,3.1-1.6,3.9c-0.6,1.1,0.6,2.2,2.2,1.8
	c2.8-0.6,3.2-4.8,2.8-7.1c-0.9-5.3-3.6-9-8.3-8.9h-4.2c-0.7,0.1-0.7-0.9-0.2-1.1c1.6-0.3,3.8-0.8,3.9-2.7c-0.4-3.5-0.4-5.9,0.9-9.1
	C17,5.9,19.8,4,23,3.2c2.1-0.5,3.9-0.3,5.3,0.7c1.5,1,2.4,2.1,2.7,4.1c0.4,3.2-0.7,5.3-2.9,5.8c-2.5,0.6-4.5-0.6-5-3.3
	c-0.4-1.8,0.2-3.1,1.6-3.9c0.3-1.4-0.6-2.2-2.2-1.8c-2.8,0.6-3.7,5.5-3.3,7.8c0.9,5.3,3.8,7.9,8.4,7.8l3.9,0
	c0.9-0.2,0.8,0.9,0.3,0.9c-1.9,0.2-3.5,1.8-3.5,3.5c0.4,5.1,0.4,6.1-0.9,9.4c-1.3,3.2-3.6,4.7-6.5,5.4c-2.1,0.5-4.5,0.3-6-0.7
	C13.4,38.2,12.4,37,12.1,35z"/>
</svg>
