<?xml version="1.0" encoding="utf-8"?>
<!-- Generator: Adobe Illustrator 18.1.1, SVG Export Plug-In . SVG Version: 6.00 Build 0)  -->
<svg version="1.1" id="Слой_1" xmlns="http://www.w3.org/2000/svg" xmlns:xlink="http://www.w3.org/1999/xlink" x="0px" y="0px"
	 viewBox="0 0 313 25" enable-background="new 0 0 313 25" xml:space="preserve">
<path fill-rule="evenodd" clip-rule="evenodd" fill="#FFFFFF" d="M26.4,14.8c0.1,0,0.2,0,0.4,0h3.5v2.9h-3.5c-0.8,0-1.4-0.6-1.4-1.4
	C25.3,15.6,25.8,15,26.4,14.8z M32.2,10.5l-0.1,0.1L32.2,10.5c-0.4-0.8-1-1.4-1.8-1.8c-0.5-0.2-1-0.4-1.6-0.4h-3.7v2.3h3.7
	c0.8,0,1.4,0.6,1.4,1.4v0.4h-3.5c-0.5,0-1,0.1-1.5,0.3l-0.1,0c-0.8,0.4-1.4,1-1.8,1.8c-0.2,0.5-0.4,1-0.4,1.6c0,0.6,0.1,1.1,0.4,1.6
	c0.4,0.8,1,1.4,1.8,1.8c0.5,0.2,1,0.4,1.6,0.4h5.8v-7.8C32.5,11.5,32.4,11,32.2,10.5z"/>
<path fill="#FFFFFF" d="M36,12.6c0.2-1.1,1.2-2,2.4-2h3.4V8.4h-3.4c-1,0-1.9,0.3-2.6,0.8c-0.5,0.4-1,0.8-1.3,1.3
	c-0.4,0.6-0.7,1.3-0.8,2.1c0,0.2,0,0.4,0,0.5v2.1c0,1,0.3,1.9,0.8,2.6c0.4,0.5,0.8,1,1.3,1.3c0.8,0.5,1.7,0.8,2.6,0.8h3.4v-2.3h-3.4
	c-1.4,0-2.5-1.1-2.5-2.5v-2.1C35.9,13,36,12.8,36,12.6z"/>
<path fill="#FFFFFF" d="M113.7,8.4v6.8c0,0.6-0.2,1.1-0.5,1.5c-0.4,0.6-1.2,1-2,1s-1.5-0.4-2-1c-0.3-0.4-0.5-0.9-0.5-1.5V8.4h-2.3
	v6.8c0,0.6,0.1,1.1,0.3,1.6c0.1,0.4,0.3,0.7,0.5,1c0.3,0.5,0.8,1,1.3,1.3l0.2,0.1c0.7,0.4,1.6,0.7,2.5,0.7c0.8,0,1.5-0.2,2.2-0.5
	c-0.1,0.1-0.1,0.2-0.2,0.4c-0.4,0.6-1.2,1-2,1h-2.7V23h2.7c1,0,1.9-0.3,2.6-0.8c0.5-0.4,1-0.8,1.3-1.3c0.2-0.3,0.4-0.7,0.5-1.1
	c0.2-0.5,0.3-1,0.3-1.6V8.4H113.7z"/>
<path fill-rule="evenodd" clip-rule="evenodd" fill="#FFFFFF" d="M98.2,16.2c0-0.7,0.5-1.2,1-1.4c0.1,0,0.2,0,0.4,0h3.5v2.9h-3.5
	C98.9,17.6,98.2,17,98.2,16.2z M105,10.5l-0.1,0.1L105,10.5c-0.4-0.8-1-1.4-1.8-1.8c-0.5-0.2-1-0.4-1.6-0.4H98v2.3h3.7
	c0.8,0,1.4,0.6,1.4,1.4v0.4h-3.5c-0.5,0-1,0.1-1.5,0.3l-0.1,0c-0.8,0.4-1.4,1-1.8,1.8c-0.2,0.5-0.4,1-0.4,1.6c0,0.6,0.1,1.1,0.4,1.6
	c0.4,0.8,1,1.4,1.8,1.8c0.5,0.2,1,0.4,1.6,0.4h5.8v-7.8C105.4,11.5,105.3,11,105,10.5z"/>
<path fill-rule="evenodd" clip-rule="evenodd" fill="#FFFFFF" d="M90.3,17.6c-1.4,0-2.5-1.1-2.5-2.5v-2.1c0-0.2,0-0.3,0-0.5
	c0.2-1.1,1.2-2,2.4-2c1.2,0,2.2,0.9,2.4,2c0,0.2,0.1,0.3,0.1,0.5v2.1C92.7,16.5,91.6,17.6,90.3,17.6z M95,12.6
	c-0.1-0.8-0.4-1.5-0.8-2.1c-0.3-0.5-0.8-1-1.3-1.3c-0.8-0.5-1.7-0.8-2.6-0.8c-1,0-1.9,0.3-2.6,0.8c-0.5,0.4-1,0.8-1.3,1.3
	c-0.4,0.6-0.7,1.3-0.8,2.1c0,0.2,0,0.4,0,0.5V23h2.3v-3.8c0.7,0.4,1.6,0.7,2.5,0.7c1,0,1.9-0.3,2.6-0.8c0.5-0.3,1-0.8,1.3-1.3
	c0.5-0.8,0.8-1.7,0.8-2.6v-2.1C95,13,95,12.8,95,12.6z"/>
<path fill-rule="evenodd" clip-rule="evenodd" fill="#FFFFFF" d="M82.1,13.1v2.1c0,1.4-1.1,2.5-2.4,2.5c-1.4,0-2.4-1.1-2.4-2.5v-2.1
	c0-0.2,0-0.3,0.1-0.5c0.2-1.1,1.2-2,2.4-2c1.2,0,2.2,0.9,2.4,2C82.1,12.8,82.1,13,82.1,13.1z M84.4,12.6c-0.1-0.8-0.3-1.5-0.8-2.1
	c-0.3-0.5-0.8-1-1.3-1.3c-0.8-0.5-1.7-0.8-2.6-0.8c-1,0-1.9,0.3-2.6,0.8c-0.5,0.4-1,0.8-1.3,1.3c-0.4,0.6-0.7,1.3-0.8,2.1
	c0,0.2,0,0.4,0,0.5v2.1c0,1,0.3,1.9,0.8,2.6c0.4,0.5,0.8,1,1.3,1.3c0.8,0.5,1.7,0.8,2.6,0.8c1,0,1.9-0.3,2.6-0.8
	c0.5-0.3,1-0.8,1.3-1.3c0.5-0.8,0.8-1.7,0.8-2.6v-2.1C84.4,13,84.4,12.8,84.4,12.6z"/>
<path fill="#FFFFFF" d="M72.3,8.4c-1,0-1.9,0.3-2.6,0.8c-0.5,0.4-1,0.8-1.3,1.3c-0.4,0.6-0.7,1.3-0.8,2.1c0,0.2,0,0.4,0,0.5v6.8h2.3
	v-6.8c0-0.2,0-0.3,0.1-0.5c0.2-1.1,1.2-2,2.4-2h2.1V8.4H72.3z"/>
<polygon fill="#FFFFFF" points="63.9,19.9 66.2,19.9 66.2,11.5 63.9,11.5 63.9,15.4 "/>
<polygon fill="#CC222B" points="63.9,10.7 66.2,10.7 66.2,9.5 66.2,8.4 63.9,8.4 63.9,9.5 "/>
<path fill="#FFFFFF" d="M60.2,8.4v9.3h-2.5c-1.4,0-2.4-1.1-2.4-2.5V8.4H53v6.8c0,1,0.3,1.9,0.8,2.6c0.3,0.5,0.8,1,1.3,1.3
	c0.8,0.5,1.7,0.8,2.6,0.8h4.7V8.4H60.2z"/>
<path fill-rule="evenodd" clip-rule="evenodd" fill="#FFFFFF" d="M47.2,10.7c1.2,0,2.2,0.9,2.4,2c0,0.2,0,0.3,0,0.5v2.1
	c0,1.4-1.1,2.5-2.5,2.5c-1.4,0-2.4-1.1-2.4-2.5v-2.1c0-0.2,0-0.3,0-0.5C45,11.5,46,10.7,47.2,10.7z M51.9,12.6
	c-0.1-0.8-0.4-1.5-0.8-2.1c-0.3-0.5-0.8-1-1.3-1.3c-0.8-0.5-1.7-0.8-2.6-0.8c-1,0-1.9,0.3-2.6,0.8c-0.5,0.4-1,0.8-1.3,1.3
	c-0.4,0.6-0.7,1.3-0.8,2.1c0,0.2,0,0.4,0,0.5v2.1c0,1,0.3,1.9,0.8,2.6c0.4,0.5,0.8,1,1.3,1.3c0.8,0.5,1.7,0.8,2.6,0.8
	c0.9,0,1.7-0.2,2.5-0.7V23h2.3v-9.9C51.9,13,51.9,12.8,51.9,12.6z"/>
<path fill-rule="evenodd" clip-rule="evenodd" fill="#CC222B" d="M13.8,20H8.3c-2.2-0.2-3.9-2-3.9-4.3v-3c0-0.8,0.2-1.5,0.6-2.1
	c0.8-1.4,2.3-2.3,4.2-2.3c1.8,0,3.4,0.9,4.2,2.3c0.4,0.6,0.6,1.3,0.6,2.1V20z M9.4,4L9.4,4L9.4,4L9.4,4L9.4,4L9.4,4L9.4,4L9.4,4
	L9.3,4H9.1h0h0H8.9h0h0h0h0h0h0l0,0h0C4.2,4.2,0,7.6,0,12.2v3.5c0,4.6,4.2,8.1,8.8,8.2h0l0,0h0h0h0h0h0h0h0.2h0h0h0.2h0h0h0h0h0h0
	l0,0h0c4.6-0.2,8.8-3.6,8.8-8.2v-3.5C18.2,7.6,13.9,4.2,9.4,4z"/>
<path fill="#CC222B" d="M218.3,0c6.8,0,12.3,5.6,12.3,12.5c0,6.9-5.5,12.5-12.3,12.5c-6.8,0-12.3-5.6-12.3-12.5
	C206,5.6,211.5,0,218.3,0z"/>
<path fill="#E9A94C" d="M234.7,0c-3.2,0-6.1,1.2-8.2,3.2c-0.5,0.4-0.9,0.8-1.2,1.3h2.5c0.3,0.4,0.6,0.9,0.9,1.3h-4.4
	c-0.3,0.4-0.5,0.9-0.7,1.3h5.8c0.2,0.4,0.4,0.9,0.5,1.3h-6.8c-0.1,0.4-0.3,0.9-0.4,1.3h7.5c0.2,0.9,0.3,1.7,0.3,2.6
	c0,1.4-0.2,2.7-0.6,4h-6.8c0.1,0.4,0.3,0.9,0.5,1.3h5.8c-0.2,0.5-0.4,0.9-0.7,1.3h-4.3c0.3,0.5,0.6,0.9,0.9,1.3h2.5
	c-0.4,0.5-0.8,0.9-1.2,1.3c2.2,2,5.1,3.2,8.2,3.2c6.8,0,12.3-5.6,12.3-12.5C247,5.6,241.5,0,234.7,0L234.7,0z"/>
<path fill-rule="evenodd" clip-rule="evenodd" fill="#FFFFFF" d="M228,10.6c-0.2,1.6-0.5,3.2-0.7,4.8l-0.1,0.4h1.3
	c0.5-3.1,0.6-3.8,1.3-3.7c0.1-0.6,0.3-1.2,0.5-1.5c-0.6-0.1-0.9,0.2-1.3,0.8c0-0.3,0.1-0.5,0.1-0.8L228,10.6L228,10.6z M238.9,10.6
	c-0.2,1.6-0.5,3.2-0.7,4.8l-0.1,0.4h1.3c0.5-3.1,0.6-3.8,1.3-3.7c0.1-0.6,0.3-1.2,0.5-1.5c-0.6-0.1-0.9,0.2-1.3,0.8
	c0-0.3,0.1-0.5,0.1-0.8L238.9,10.6L238.9,10.6z M242.8,14.6c0.6,0,1.1-0.7,1.1-1.7c0-0.6-0.2-1-0.7-1c-0.6,0-1,0.7-1,1.7
	C242.1,14.3,242.4,14.6,242.8,14.6L242.8,14.6z M244.8,15.8h-1.3l0.1-0.5c-0.4,0.4-0.7,0.6-1.2,0.6c-1,0-1.6-0.8-1.6-2.1
	c0-1.7,1-3.2,2.2-3.2c0.5,0,0.9,0.2,1.3,0.7l0.3-1.8h1.3L244.8,15.8L244.8,15.8z M217.5,12.3c0,0.7,0.3,1.1,1,1.4
	c0.5,0.3,0.6,0.3,0.6,0.6c0,0.3-0.2,0.5-0.8,0.5c-0.4,0-0.8-0.1-1.2-0.2l-0.2,1.2c0.3,0.1,0.6,0.1,1.4,0.1c1.4,0,2.1-0.5,2.1-1.7
	c0-0.7-0.3-1.1-0.9-1.4c-0.6-0.3-0.6-0.3-0.6-0.6c0-0.3,0.2-0.4,0.6-0.4c0.3,0,0.6,0,0.9,0.1l0.2-1.2c-0.3-0.1-0.9-0.1-1.2-0.1
	C218.1,10.5,217.5,11.3,217.5,12.3L217.5,12.3z M226,12.6c0-0.1,0.1-0.9-0.6-0.9c-0.4,0-0.7,0.3-0.9,0.9H226L226,12.6z M226.7,15.7
	c-0.5,0.1-0.9,0.2-1.4,0.2c-1.5,0-2.3-0.8-2.3-2.3c0-1.8,1-3.1,2.3-3.1c1.1,0,1.8,0.7,1.8,1.9c0,0.4-0.1,0.7-0.2,1.3h-2.6
	c-0.1,0.8,0.4,1.1,1.1,1.1c0.5,0,0.9-0.1,1.4-0.3L226.7,15.7z M222.7,15.7c-0.4,0.1-0.6,0.2-1,0.2c-0.7,0-1-0.4-1-1.1
	c0-0.2,0.1-0.8,0.2-1.4l0.6-3.5h1.3l-0.2,0.8h0.7l-0.2,1.2h-0.7c-0.2,1-0.4,2.2-0.4,2.4c0,0.3,0.1,0.4,0.5,0.4c0.1,0,0.3,0,0.4-0.1
	L222.7,15.7L222.7,15.7z M237.7,15.8h-1.1l0-0.5c-0.3,0.4-0.8,0.6-1.4,0.6c-0.7,0-1.2-0.6-1.2-1.4c0-1.2,0.9-2,2.3-2
	c0.1,0,0.3,0,0.5,0c0-0.2,0.1-0.2,0.1-0.3c0-0.3-0.2-0.5-0.9-0.5c-0.7,0-1.2,0.2-1.4,0.2l0.2-1.2c0.7-0.2,1.1-0.3,1.6-0.3
	c1.1,0,1.8,0.5,1.8,1.5c0,0.3,0,0.6-0.1,1C238,13.8,237.8,15.4,237.7,15.8L237.7,15.8z M236.8,13.5c-0.1,0-0.2,0-0.3,0
	c-0.8,0-1.1,0.3-1.1,0.8c0,0.3,0.2,0.5,0.5,0.5C236.3,14.8,236.7,14.3,236.8,13.5L236.8,13.5z M234.6,9.6l-0.2,1.4
	c-0.5-0.2-0.8-0.4-1.2-0.4c-1,0-1.7,1-1.7,2.4c0,1,0.5,1.5,1.2,1.5c0.3,0,0.7-0.1,1.1-0.3l-0.2,1.4c-0.5,0.1-0.8,0.2-1.2,0.2
	c-1.4,0-2.3-1-2.3-2.7c0-2.3,1.2-3.9,3-3.9C233.7,9.3,234.4,9.5,234.6,9.6L234.6,9.6z M216.8,15.8h-1.1l0-0.5
	c-0.3,0.4-0.8,0.6-1.4,0.6c-0.7,0-1.2-0.6-1.2-1.4c0-1.2,0.9-2,2.3-2c0.1,0,0.3,0,0.5,0c0-0.2,0.1-0.2,0.1-0.3
	c0-0.3-0.2-0.5-0.9-0.5c-0.6,0-1.2,0.2-1.4,0.2l0.2-1.2c0.7-0.2,1.1-0.3,1.6-0.3c1.1,0,1.8,0.5,1.8,1.5c0,0.3,0,0.6-0.1,1
	C217,13.8,216.8,15.4,216.8,15.8L216.8,15.8z M215.8,13.5c-0.1,0-0.2,0-0.3,0c-0.8,0-1.1,0.3-1.1,0.8c0,0.3,0.2,0.5,0.5,0.5
	C215.4,14.8,215.8,14.3,215.8,13.5z M212.5,15.8h-1.3l0.8-4.9l-1.7,4.9h-0.9l-0.1-4.9l-0.8,4.9h-1.2l1-6.3h1.9l0,3.9l1.3-3.9h2.1
	L212.5,15.8z"/>
<path fill="#549EDA" d="M292.5,21.8c2.5-2.3,4-5.6,4-9.3c0-3.7-1.5-7-4-9.3c-2.2-2-5.1-3.2-8.2-3.2C277.5,0,272,5.6,272,12.5
	c0,6.9,5.5,12.5,12.3,12.5C287.4,25,290.3,23.8,292.5,21.8L292.5,21.8z"/>
<path fill="#D14947" d="M300.7,0c-3.2,0-6,1.2-8.2,3.2c-0.4,0.4-0.9,0.8-1.2,1.3h2.5c0.3,0.4,0.6,0.9,0.9,1.3h-4.3
	c-0.3,0.4-0.5,0.9-0.7,1.3h5.8c0.2,0.4,0.4,0.9,0.5,1.3h-6.8c-0.1,0.4-0.3,0.9-0.4,1.3h7.5c0.2,0.9,0.3,1.7,0.3,2.6
	c0,1.4-0.2,2.7-0.6,4h-6.8c0.1,0.4,0.3,0.9,0.5,1.3h5.8c-0.2,0.5-0.4,0.9-0.7,1.3h-4.3c0.3,0.5,0.6,0.9,0.9,1.3h2.5
	c-0.4,0.5-0.8,0.9-1.2,1.3c2.2,2,5.1,3.2,8.2,3.2c6.8,0,12.3-5.6,12.3-12.5C313,5.6,307.5,0,300.7,0L300.7,0z"/>
<path fill-rule="evenodd" clip-rule="evenodd" fill="#FFFFFF" d="M307.4,12.6c0-0.5-0.2-1-0.8-1c-0.8,0-1.3,0.9-1.3,1.8
	c0,0.7,0.3,1.2,0.9,1.2c0.3,0,1-0.5,1.2-1.3C307.4,13,307.4,12.8,307.4,12.6L307.4,12.6z M309,13.3c-0.2,1.7-1.4,2.5-3,2.5
	c-1.7,0-2.4-1.1-2.4-2.4c0-1.8,1.2-3.1,3-3.1c1.6,0,2.4,1,2.4,2.3C309,13,309,13,309,13.3L309,13.3z M291.9,12.4l0-0.3
	c0-0.4-0.3-0.7-0.7-0.7c-0.5,0-0.8,0.3-1,0.9H291.9z M292.7,15.5c-0.5,0.1-1,0.2-1.6,0.2c-1.7,0-2.6-0.8-2.6-2.3
	c0-1.8,1.1-3.1,2.7-3.1c1.3,0,2.1,0.7,2.1,1.9c0,0.4,0,0.8-0.2,1.3h-3c0,0.1,0,0.1,0,0.2c0,0.6,0.5,0.9,1.3,0.9c0.5,0,1-0.1,1.6-0.3
	L292.7,15.5L292.7,15.5z M286.6,13.3c-0.2,0-0.2,0-0.3,0c-0.9,0-1.3,0.3-1.3,0.8c0,0.3,0.2,0.5,0.5,0.5
	C286.1,14.6,286.6,14.1,286.6,13.3L286.6,13.3z M287.7,15.6h-1.3l0-0.5c-0.4,0.4-0.9,0.6-1.6,0.6c-0.8,0-1.4-0.6-1.4-1.4
	c0-1.2,1-2,2.7-2c0.2,0,0.4,0,0.6,0c0.1-0.2,0.1-0.2,0.1-0.3c0-0.3-0.3-0.5-1-0.5c-0.4,0-0.9,0.1-1.3,0.1l-0.2,0.1l-0.1,0l0.2-1.1
	c0.8-0.2,1.3-0.3,1.8-0.3c1.3,0,2,0.5,2,1.5c0,0.3,0,0.4-0.1,1l-0.3,1.8l-0.1,0.3l0,0.3l0,0.2L287.7,15.6L287.7,15.6z M293.7,12.1
	c0,0.7,0.4,1.1,1.2,1.4c0.6,0.3,0.7,0.3,0.7,0.6c0,0.3-0.3,0.5-0.9,0.5c-0.5,0-0.9-0.1-1.4-0.2l-0.2,1.2l0.1,0l0.3,0.1
	c0.1,0,0.2,0,0.4,0c0.4,0,0.6,0,0.8,0c1.6,0,2.4-0.5,2.4-1.7c0-0.7-0.3-1.1-1.1-1.4c-0.6-0.3-0.7-0.3-0.7-0.6c0-0.3,0.2-0.4,0.8-0.4
	c0.3,0,0.7,0,1.1,0.1l0.2-1.2c-0.4,0-1-0.1-1.4-0.1C294.3,10.3,293.7,11.1,293.7,12.1L293.7,12.1z M304.2,10.5c-0.1,0-0.1,0-0.2-0.1
	l-0.1,0c-0.1,0-0.1,0-0.2,0c-0.5,0-0.9,0.2-1.3,0.8l0.1-0.8h-1.4l-0.9,5.1h1.5c0.5-3.1,0.8-3.7,1.5-3.7l0.2,0l0.2,0L304.2,10.5
	L304.2,10.5z M299.8,15.5c-0.4,0.1-0.7,0.2-1.1,0.2c-0.8,0-1.2-0.4-1.2-1.1c0-0.1,0-0.3,0-0.5l0.1-0.5l0.1-0.4l0.7-3.9h1.5l-0.2,1.2
	h0.8l-0.2,1.2h-0.8l-0.4,2.1c0,0.1,0,0.2,0,0.2c0,0.3,0.2,0.4,0.5,0.4c0.2,0,0.3,0,0.4,0L299.8,15.5L299.8,15.5z M282.7,15.6h-1.5
	l0.9-4.9l-2.1,4.9h-1.4l-0.2-4.8l-0.9,4.8h-1.4l1.2-6.3h2.4l0.1,3.9l1.7-3.9h2.5L282.7,15.6z"/>
<polygon fill="#314197" points="151.6,20.8 153.9,6.3 157.8,6.3 155.4,20.8 "/>
<path fill="#314197" d="M169.2,6.6c-0.8-0.3-1.9-0.6-3.4-0.6c-3.8,0-6.4,2-6.4,4.8c0,2.1,1.9,3.2,3.3,4c1.5,0.7,2,1.2,2,1.8
	c0,1-1.2,1.4-2.3,1.4c-1.5,0-2.3-0.2-3.6-0.8l-0.5-0.2l-0.5,3.3c0.9,0.4,2.5,0.8,4.2,0.8c4,0,6.6-2,6.6-5c0-1.6-1-2.9-3.2-4
	c-1.3-0.7-2.1-1.1-2.1-1.8c0-0.6,0.7-1.3,2.2-1.3c1.2,0,2.2,0.3,2.8,0.6l0.3,0.2L169.2,6.6z"/>
<path fill-rule="evenodd" clip-rule="evenodd" fill="#314197" d="M178.9,6.3H176c-0.9,0-1.6,0.3-2,1.2l-5.7,13.3h4l0.8-2.2h4.9
	l0.5,2.2h3.5L178.9,6.3z M174.2,15.6l1.5-4.1c0,0,0.3-0.9,0.5-1.4l0.3,1.2c0,0,0.7,3.5,0.9,4.2H174.2z"/>
<path fill="#314197" d="M148.4,6.3l-3.9,10.6c0,0-3.1-7.5-5.5-8.8l3.4,12.7h4l6-14.5H148.4z"/>
<path fill="#FBAB1B" d="M141.2,6.3h-6.1L135,6.6c4.8,1.2,7.9,4.1,9.2,7.6l-1.3-6.7C142.7,6.6,142,6.3,141.2,6.3z"/>
</svg>
