<?xml version="1.0" encoding="utf-8"?>
<!-- Generator: Adobe Illustrator 18.1.1, SVG Export Plug-In . SVG Version: 6.00 Build 0)  -->
<svg version="1.1" id="Слой_1" xmlns="http://www.w3.org/2000/svg" xmlns:xlink="http://www.w3.org/1999/xlink" x="0px" y="0px"
	 viewBox="0 0 931.9 74.4" enable-background="new 0 0 931.9 74.4" xml:space="preserve">
<path fill="#FFFFFF" d="M517.3,720.1c0.3,0,0.6,0,1.2,0h10.4v8.6h-10.4c-2.4,0-4.2-1.8-4.2-4.2C514,722.4,515.5,720.6,517.3,720.1z
	 M534.5,707.3l-0.3,0.3L534.5,707.3c-1.2-2.4-3-4.2-5.4-5.4c-1.5-0.6-3-1.2-4.8-1.2h-11v6.8h11c2.4,0,4.2,1.8,4.2,4.2v1.2h-10.4
	c-1.5,0-3,0.3-4.5,0.9h-0.3c-2.4,1.2-4.2,3-5.4,5.4c-0.6,1.5-1.2,3-1.2,4.8c0,1.8,0.3,3.3,1.2,4.8c1.2,2.4,3,4.2,5.4,5.4
	c1.5,0.6,3,1.2,4.8,1.2h17.3V712C535.4,710.2,535.1,708.7,534.5,707.3z"/>
<path fill="#FFFFFF" d="M545.9,713.5c0.6-3.3,3.6-6,7.1-6h10.1v-6.8H553c-3,0-5.7,0.9-7.7,2.4c-1.5,1.2-3,2.4-3.9,3.9
	c-1.2,1.8-2.1,3.9-2.4,6.3c0,0.6,0,1.2,0,1.5v6.3c0,3,0.9,5.7,2.4,7.7c1.2,1.5,2.4,3,3.9,3.9c2.4,1.5,5.1,2.4,7.7,2.4h10.1v-6.8H553
	c-4.2,0-7.1-3.3-7.1-7.4v-6.3C545.6,714.7,545.9,714.1,545.9,713.5z"/>
<path fill="#FFFFFF" d="M777.1,701v20.2c0,1.8-0.6,3.3-1.5,4.5c-1.2,1.8-3.6,3-6,3c-2.4,0-4.5-1.2-6-3c-0.9-1.2-1.5-2.7-1.5-4.5V701
	h-6.8v20.2c0,1.8,0.3,3.3,0.9,4.8c0.3,1.2,0.9,2.1,1.5,3c0.9,1.5,2.4,3,3.9,3.9l0.6,0.3c2.1,1.2,4.8,2.1,7.4,2.1
	c2.4,0,4.5-0.6,6.5-1.5c-0.3,0.3-0.3,0.6-0.6,1.2c-1.2,1.8-3.6,3-6,3h-8v6.8h8c3,0,5.7-0.9,7.7-2.4c1.5-1.2,3-2.4,3.9-3.9
	c0.6-0.9,1.2-2.1,1.5-3.3c0.6-1.5,0.9-3,0.9-4.8V701H777.1z"/>
<path fill="#FFFFFF" d="M731,724.2c0-2.1,1.5-3.6,3-4.2c0.3,0,0.6,0,1.2,0h10.4v8.6h-10.4C732.8,728.4,731,726.6,731,724.2z
	 M751.2,707.3l-0.3,0.3L751.2,707.3c-1.2-2.4-3-4.2-5.4-5.4c-1.5-0.6-3-1.2-4.8-1.2h-10.7v6.8h11c2.4,0,4.2,1.8,4.2,4.2v1.2h-10.4
	c-1.5,0-3,0.3-4.5,0.9h-0.3c-2.4,1.2-4.2,3-5.4,5.4c-0.6,1.5-1.2,3-1.2,4.8c0,1.8,0.3,3.3,1.2,4.8c1.2,2.4,3,4.2,5.4,5.4
	c1.5,0.6,3,1.2,4.8,1.2h17.3V712C752.4,710.2,752.1,708.7,751.2,707.3z"/>
<path fill="#FFFFFF" d="M707.5,728.4c-4.2,0-7.4-3.3-7.4-7.4v-6.3c0-0.6,0-0.9,0-1.5c0.6-3.3,3.6-6,7.1-6c3.6,0,6.5,2.7,7.1,6
	c0,0.6,0.3,0.9,0.3,1.5v6.3C714.6,725.1,711.3,728.4,707.5,728.4z M721.5,713.5c-0.3-2.4-1.2-4.5-2.4-6.3c-0.9-1.5-2.4-3-3.9-3.9
	c-2.4-1.5-5.1-2.4-7.7-2.4c-3,0-5.7,0.9-7.7,2.4c-1.5,1.2-3,2.4-3.9,3.9c-1.2,1.8-2.1,3.9-2.4,6.3c0,0.6,0,1.2,0,1.5v29.5h6.8v-11.3
	c2.1,1.2,4.8,2.1,7.4,2.1c3,0,5.7-0.9,7.7-2.4c1.5-0.9,3-2.4,3.9-3.9c1.5-2.4,2.4-5.1,2.4-7.7V715
	C721.5,714.7,721.5,714.1,721.5,713.5z"/>
<path fill="#FFFFFF" d="M683.1,715v6.3c0,4.2-3.3,7.4-7.1,7.4c-4.2,0-7.1-3.3-7.1-7.4V715c0-0.6,0-0.9,0.3-1.5c0.6-3.3,3.6-6,7.1-6
	s6.5,2.7,7.1,6C683.1,714.1,683.1,714.7,683.1,715z M689.9,713.5c-0.3-2.4-0.9-4.5-2.4-6.3c-0.9-1.5-2.4-3-3.9-3.9
	c-2.4-1.5-5.1-2.4-7.7-2.4s-5.7,0.9-7.7,2.4c-1.5,1.2-3,2.4-3.9,3.9c-1.2,1.8-2.1,3.9-2.4,6.3c0,0.6,0,1.2,0,1.5v6.3
	c0,3,0.9,5.7,2.4,7.7c1.2,1.5,2.4,3,3.9,3.9c2.4,1.5,5.1,2.4,7.7,2.4s5.7-0.9,7.7-2.4c1.5-0.9,3-2.4,3.9-3.9
	c1.5-2.4,2.4-5.1,2.4-7.7V715C689.9,714.7,689.9,714.1,689.9,713.5z"/>
<path fill="#FFFFFF" d="M653.9,701c-3,0-5.7,0.9-7.7,2.4c-1.5,1.2-3,2.4-3.9,3.9c-1.2,1.8-2.1,3.9-2.4,6.3c0,0.6,0,1.2,0,1.5v20.2
	h6.8V715c0-0.6,0-0.9,0.3-1.5c0.6-3.3,3.6-6,7.1-6h6.3v-6.8h-6.5V701z"/>
<polygon fill="#FFFFFF" points="628.9,735.2 635.7,735.2 635.7,710.2 628.9,710.2 628.9,721.8 "/>
<polygon fill="#C14E45" points="628.9,707.8 635.7,707.8 635.7,704.3 635.7,701 628.9,701 628.9,704.3 "/>
<path fill="#FFFFFF" d="M617.9,701v27.7h-7.4c-4.2,0-7.1-3.3-7.1-7.4V701h-6.8v20.2c0,3,0.9,5.7,2.4,7.7c0.9,1.5,2.4,3,3.9,3.9
	c2.4,1.5,5.1,2.4,7.7,2.4h14v-34.5h-6.5V701z"/>
<path fill="#FFFFFF" d="M579.2,707.8c3.6,0,6.5,2.7,7.1,6c0,0.6,0,0.9,0,1.5v6.3c0,4.2-3.3,7.4-7.1,7.4c-4.2,0-7.1-3.3-7.1-7.4v-6.3
	c0-0.6,0-0.9,0.3-1.5C572.6,710.2,575.6,707.8,579.2,707.8z M593.2,713.5c-0.3-2.4-1.2-4.5-2.4-6.3c-0.9-1.5-2.4-3-3.9-3.9
	c-2.4-1.5-5.1-2.4-7.7-2.4c-2.7,0-5.7,0.9-7.7,2.4c-1.5,1.2-3,2.4-3.9,3.9c-1.2,1.8-2.1,3.9-2.4,6.3c0,0.6,0,1.2,0,1.5v6.3
	c0,3,0.9,5.7,2.4,7.7c1.2,1.5,2.4,3,3.9,3.9c2.4,1.5,5.1,2.4,7.7,2.4s5.1-0.6,7.1-2.1v11.3h6.8V715
	C593.2,714.7,593.2,714.1,593.2,713.5z"/>
<path fill="#C14E45" d="M479.8,735.5h-16.7c-6.5-0.6-11.6-6-11.6-12.8v-8.9c0-2.4,0.6-4.5,1.8-6.3c2.4-4.2,6.8-6.8,12.5-6.8
	c5.4,0,10.1,2.7,12.5,6.8c1.2,1.8,1.8,3.9,1.8,6.3v21.7H479.8z M466.7,687.9L466.7,687.9L466.7,687.9L466.7,687.9L466.7,687.9
	L466.7,687.9L466.7,687.9L466.7,687.9h-0.3h-0.6l0,0l0,0h-0.6l0,0l0,0l0,0l0,0l0,0l0,0l0,0l0,0c-13.7,0.6-26.2,10.7-26.2,24.4v10.4
	c0,13.7,12.5,24.1,26.2,24.4l0,0l0,0l0,0l0,0l0,0l0,0l0,0l0,0h0.6l0,0l0,0h0.6l0,0l0,0l0,0l0,0l0,0l0,0l0,0l0,0
	c13.7-0.6,26.2-10.7,26.2-24.4v-10.4C492.9,698.6,480.1,688.5,466.7,687.9z"/>
<path fill="#C14E45" d="M1088.5,676c20.2,0,36.6,16.7,36.6,37.2c0,20.5-16.7,37.2-36.6,37.2c-20.2,0-36.6-16.7-36.6-37.2
	C1051.8,692.7,1068.2,676,1088.5,676z"/>
<path fill="#E3A854" d="M1137.3,676c-9.5,0-18.2,3.6-24.4,9.5c-1.5,1.2-2.7,2.4-3.6,3.9h7.4c0.9,1.2,1.8,2.7,2.7,3.9h-13.1
	c-0.9,1.2-1.5,2.7-2.1,3.9h17.3c0.6,1.2,1.2,2.7,1.5,3.9h-20.2c-0.3,1.2-0.9,2.7-1.2,3.9h22.3c0.6,2.7,0.9,5.1,0.9,7.7
	c0,4.2-0.6,8-1.8,11.9h-20.2c0.3,1.2,0.9,2.7,1.5,3.9h17.3c-0.6,1.5-1.2,2.7-2.1,3.9h-12.8c0.9,1.5,1.8,2.7,2.7,3.9h7.4
	c-1.2,1.5-2.4,2.7-3.6,3.9c6.5,6,15.2,9.5,24.4,9.5c20.2,0,36.6-16.7,36.6-37.2C1174.2,691.8,1157.5,676,1137.3,676L1137.3,676z"/>
<path fill="#FFFFFF" d="M1117.3,707.5c-0.6,4.8-1.5,9.5-2.1,14.3l-0.3,1.2h3.9c1.5-9.2,1.8-11.3,3.9-11c0.3-1.8,0.9-3.6,1.5-4.5
	c-1.8-0.3-2.7,0.6-3.9,2.4c0-0.9,0.3-1.5,0.3-2.4L1117.3,707.5L1117.3,707.5z M1149.8,707.5c-0.6,4.8-1.5,9.5-2.1,14.3l-0.3,1.2h3.9
	c1.5-9.2,1.8-11.3,3.9-11c0.3-1.8,0.9-3.6,1.5-4.5c-1.8-0.3-2.7,0.6-3.9,2.4c0-0.9,0.3-1.5,0.3-2.4L1149.8,707.5L1149.8,707.5z
	 M1161.4,719.5c1.8,0,3.3-2.1,3.3-5.1c0-1.8-0.6-3-2.1-3c-1.8,0-3,2.1-3,5.1C1159.3,718.6,1160.2,719.5,1161.4,719.5L1161.4,719.5z
	 M1167.3,723h-3.9l0.3-1.5c-1.2,1.2-2.1,1.8-3.6,1.8c-3,0-4.8-2.4-4.8-6.3c0-5.1,3-9.5,6.5-9.5c1.5,0,2.7,0.6,3.9,2.1l0.9-5.4h3.9
	L1167.3,723L1167.3,723z M1086.1,712.6c0,2.1,0.9,3.3,3,4.2c1.5,0.9,1.8,0.9,1.8,1.8c0,0.9-0.6,1.5-2.4,1.5c-1.2,0-2.4-0.3-3.6-0.6
	l-0.6,3.6c0.9,0.3,1.8,0.3,4.2,0.3c4.2,0,6.3-1.5,6.3-5.1c0-2.1-0.9-3.3-2.7-4.2c-1.8-0.9-1.8-0.9-1.8-1.8c0-0.9,0.6-1.2,1.8-1.2
	c0.9,0,1.8,0,2.7,0.3l0.6-3.6c-0.9-0.3-2.7-0.3-3.6-0.3C1087.9,707.3,1086.1,709.6,1086.1,712.6L1086.1,712.6z M1111.4,713.5
	c0-0.3,0.3-2.7-1.8-2.7c-1.2,0-2.1,0.9-2.7,2.7H1111.4L1111.4,713.5z M1113.5,722.7c-1.5,0.3-2.7,0.6-4.2,0.6
	c-4.5,0-6.8-2.4-6.8-6.8c0-5.4,3-9.2,6.8-9.2c3.3,0,5.4,2.1,5.4,5.7c0,1.2-0.3,2.1-0.6,3.9h-7.7c-0.3,2.4,1.2,3.3,3.3,3.3
	c1.5,0,2.7-0.3,4.2-0.9L1113.5,722.7z M1101.5,722.7c-1.2,0.3-1.8,0.6-3,0.6c-2.1,0-3-1.2-3-3.3c0-0.6,0.3-2.4,0.6-4.2l1.8-10.4h3.9
	l-0.6,2.4h2.1l-0.6,3.6h-2.1c-0.6,3-1.2,6.5-1.2,7.1c0,0.9,0.3,1.2,1.5,1.2c0.3,0,0.9,0,1.2-0.3L1101.5,722.7L1101.5,722.7z
	 M1146.2,723h-3.3v-1.5c-0.9,1.2-2.4,1.8-4.2,1.8c-2.1,0-3.6-1.8-3.6-4.2c0-3.6,2.7-6,6.8-6c0.3,0,0.9,0,1.5,0
	c0-0.6,0.3-0.6,0.3-0.9c0-0.9-0.6-1.5-2.7-1.5c-2.1,0-3.6,0.6-4.2,0.6l0.6-3.6c2.1-0.6,3.3-0.9,4.8-0.9c3.3,0,5.4,1.5,5.4,4.5
	c0,0.9,0,1.8-0.3,3C1147.1,717.1,1146.5,721.8,1146.2,723L1146.2,723z M1143.5,716.2c-0.3,0-0.6,0-0.9,0c-2.4,0-3.3,0.9-3.3,2.4
	c0,0.9,0.6,1.5,1.5,1.5C1142,720.1,1143.2,718.6,1143.5,716.2L1143.5,716.2z M1137,704.6l-0.6,4.2c-1.5-0.6-2.4-1.2-3.6-1.2
	c-3,0-5.1,3-5.1,7.1c0,3,1.5,4.5,3.6,4.5c0.9,0,2.1-0.3,3.3-0.9l-0.6,4.2c-1.5,0.3-2.4,0.6-3.6,0.6c-4.2,0-6.8-3-6.8-8
	c0-6.8,3.6-11.6,8.9-11.6C1134.3,703.7,1136.4,704.3,1137,704.6L1137,704.6z M1083.7,723h-3.3v-1.5c-0.9,1.2-2.4,1.8-4.2,1.8
	c-2.1,0-3.6-1.8-3.6-4.2c0-3.6,2.7-6,6.8-6c0.3,0,0.9,0,1.5,0c0-0.6,0.3-0.6,0.3-0.9c0-0.9-0.6-1.5-2.7-1.5c-1.8,0-3.6,0.6-4.2,0.6
	l0.6-3.6c2.1-0.6,3.3-0.9,4.8-0.9c3.3,0,5.4,1.5,5.4,4.5c0,0.9,0,1.8-0.3,3C1084.6,717.1,1084,721.8,1083.7,723L1083.7,723z
	 M1081,716.2c-0.3,0-0.6,0-0.9,0c-2.4,0-3.3,0.9-3.3,2.4c0,0.9,0.6,1.5,1.5,1.5C1079.8,720.1,1081,718.6,1081,716.2z M1071.2,723
	h-3.9l2.4-14.6l-5.1,14.6h-2.7l-0.3-14.6l-2.4,14.6h-3.6l3-18.8h5.7v11.6l3.9-11.6h6.3L1071.2,723z"/>
<path fill="#5999CD" d="M1309.3,740.9c7.4-6.8,11.9-16.7,11.9-27.7c0-11-4.5-20.8-11.9-27.7c-6.5-6-15.2-9.5-24.4-9.5
	c-20.2,0-36.6,16.7-36.6,37.2c0,20.5,16.4,37.2,36.6,37.2C1294.1,750.4,1302.8,746.8,1309.3,740.9L1309.3,740.9z"/>
<path fill="#C7504D" d="M1333.7,676c-9.5,0-17.9,3.6-24.4,9.5c-1.2,1.2-2.7,2.4-3.6,3.9h7.4c0.9,1.2,1.8,2.7,2.7,3.9H1303
	c-0.9,1.2-1.5,2.7-2.1,3.9h17.3c0.6,1.2,1.2,2.7,1.5,3.9h-20.2c-0.3,1.2-0.9,2.7-1.2,3.9h22.3c0.6,2.7,0.9,5.1,0.9,7.7
	c0,4.2-0.6,8-1.8,11.9h-20.2c0.3,1.2,0.9,2.7,1.5,3.9h17.3c-0.6,1.5-1.2,2.7-2.1,3.9h-12.8c0.9,1.5,1.8,2.7,2.7,3.9h7.4
	c-1.2,1.5-2.4,2.7-3.6,3.9c6.5,6,15.2,9.5,24.4,9.5c20.2,0,36.6-16.7,36.6-37.2C1370.3,692.7,1353.9,676,1333.7,676L1333.7,676z"/>
<path fill="#FFFFFF" d="M1353.6,713.5c0-1.5-0.6-3-2.4-3c-2.4,0-3.9,2.7-3.9,5.4c0,2.1,0.9,3.6,2.7,3.6c0.9,0,3-1.5,3.6-3.9
	C1353.6,714.7,1353.6,714.1,1353.6,713.5L1353.6,713.5z M1358.4,715.6c-0.6,5.1-4.2,7.4-8.9,7.4c-5.1,0-7.1-3.3-7.1-7.1
	c0-5.4,3.6-9.2,8.9-9.2c4.8,0,7.1,3,7.1,6.8C1358.4,714.7,1358.4,714.7,1358.4,715.6L1358.4,715.6z M1307.5,712.9V712
	c0-1.2-0.9-2.1-2.1-2.1c-1.5,0-2.4,0.9-3,2.7h5.1V712.9z M1309.9,722.1c-1.5,0.3-3,0.6-4.8,0.6c-5.1,0-7.7-2.4-7.7-6.8
	c0-5.4,3.3-9.2,8-9.2c3.9,0,6.3,2.1,6.3,5.7c0,1.2,0,2.4-0.6,3.9h-8.9c0,0.3,0,0.3,0,0.6c0,1.8,1.5,2.7,3.9,2.7c1.5,0,3-0.3,4.8-0.9
	L1309.9,722.1L1309.9,722.1z M1291.7,715.6c-0.6,0-0.6,0-0.9,0c-2.7,0-3.9,0.9-3.9,2.4c0,0.9,0.6,1.5,1.5,1.5
	C1290.3,719.5,1291.7,718,1291.7,715.6L1291.7,715.6z M1295,722.4h-3.9v-1.5c-1.2,1.2-2.7,1.8-4.8,1.8c-2.4,0-4.2-1.8-4.2-4.2
	c0-3.6,3-6,8-6c0.6,0,1.2,0,1.8,0c0.3-0.6,0.3-0.6,0.3-0.9c0-0.9-0.9-1.5-3-1.5c-1.2,0-2.7,0.3-3.9,0.3l-0.6,0.3h-0.3l0.6-3.3
	c2.4-0.6,3.9-0.9,5.4-0.9c3.9,0,6,1.5,6,4.5c0,0.9,0,1.2-0.3,3l-0.9,5.4l-0.3,0.9v0.9v0.6L1295,722.4L1295,722.4z M1312.9,712
	c0,2.1,1.2,3.3,3.6,4.2c1.8,0.9,2.1,0.9,2.1,1.8c0,0.9-0.9,1.5-2.7,1.5c-1.5,0-2.7-0.3-4.2-0.6l-0.6,3.6h0.3l0.9,0.3
	c0.3,0,0.6,0,1.2,0c1.2,0,1.8,0,2.4,0c4.8,0,7.1-1.5,7.1-5.1c0-2.1-0.9-3.3-3.3-4.2c-1.8-0.9-2.1-0.9-2.1-1.8c0-0.9,0.6-1.2,2.4-1.2
	c0.9,0,2.1,0,3.3,0.3l0.6-3.6c-1.2,0-3-0.3-4.2-0.3C1314.7,706.7,1312.9,709,1312.9,712L1312.9,712z M1344.1,707.3
	c-0.3,0-0.3,0-0.6-0.3h-0.3c-0.3,0-0.3,0-0.6,0c-1.5,0-2.7,0.6-3.9,2.4l0.3-2.4h-4.2l-2.7,15.2h4.5c1.5-9.2,2.4-11,4.5-11h0.6h0.6
	L1344.1,707.3L1344.1,707.3z M1331,722.1c-1.2,0.3-2.1,0.6-3.3,0.6c-2.4,0-3.6-1.2-3.6-3.3c0-0.3,0-0.9,0-1.5l0.3-1.5l0.3-1.2
	l2.1-11.6h4.5l-0.6,3.6h2.4l-0.6,3.6h-2.4l-1.2,6.3c0,0.3,0,0.6,0,0.6c0,0.9,0.6,1.2,1.5,1.2c0.6,0,0.9,0,1.2,0L1331,722.1
	L1331,722.1z M1280.1,722.4h-4.5l2.7-14.6l-6.3,14.6h-4.2l-0.6-14.3l-2.7,14.3h-4.2l3.6-18.8h7.1l0.3,11.6l5.1-11.6h7.4
	L1280.1,722.4z"/>
<polygon fill="#4B548D" points="889.9,737.9 896.8,694.8 908.1,694.8 901.2,737.9 "/>
<path fill="#4B548D" d="M942.3,695.6c-2.4-0.9-5.7-1.8-10.1-1.8c-11.3,0-19,6-19,14.3c0,6.3,5.7,9.5,9.8,11.9c4.5,2.1,6,3.6,6,5.4
	c0,3-3.6,4.2-6.8,4.2c-4.5,0-6.8-0.6-10.7-2.4l-1.5-0.6l-1.5,9.8c2.7,1.2,7.4,2.4,12.5,2.4c11.9,0,19.6-6,19.6-14.9
	c0-4.8-3-8.6-9.5-11.9c-3.9-2.1-6.3-3.3-6.3-5.4c0-1.8,2.1-3.9,6.5-3.9c3.6,0,6.5,0.9,8.3,1.8l0.9,0.6L942.3,695.6z"/>
<path fill="#4B548D" d="M971.2,694.8h-8.6c-2.7,0-4.8,0.9-6,3.6l-17,39.6h11.9l2.4-6.5h14.6l1.5,6.5h10.4L971.2,694.8z M957.2,722.4
	l4.5-12.2c0,0,0.9-2.7,1.5-4.2l0.9,3.6c0,0,2.1,10.4,2.7,12.5h-9.5V722.4z"/>
<path fill="#4B548D" d="M880.4,694.8l-11.6,31.5c0,0-9.2-22.3-16.4-26.2l10.1,37.8h11.9l17.9-43.2L880.4,694.8L880.4,694.8z"/>
<path fill="#EAA944" d="M859,694.8h-18.2l-0.3,0.9c14.3,3.6,23.5,12.2,27.4,22.6l-3.9-19.9C863.4,695.6,861.4,694.8,859,694.8z"/>
<path fill="#FFFFFF" d="M78.3,44.1c0.3,0,0.6,0,1.2,0h10.4v8.6H79.5c-2.4,0-4.2-1.8-4.2-4.2C75,46.4,76.5,44.6,78.3,44.1z
	 M95.5,31.3l-0.3,0.3L95.5,31.3c-1.2-2.4-3-4.2-5.4-5.4c-1.5-0.6-3-1.2-4.8-1.2h-11v6.8h11c2.4,0,4.2,1.8,4.2,4.2v1.2H79.2
	c-1.5,0-3,0.3-4.5,0.9h-0.3c-2.4,1.2-4.2,3-5.4,5.4c-0.6,1.5-1.2,3-1.2,4.8c0,1.8,0.3,3.3,1.2,4.8c1.2,2.4,3,4.2,5.4,5.4
	c1.5,0.6,3,1.2,4.8,1.2h17.3V36C96.4,34.2,96.1,32.7,95.5,31.3z"/>
<path fill="#FFFFFF" d="M106.9,37.5c0.6-3.3,3.6-6,7.1-6h10.1v-6.8H114c-3,0-5.7,0.9-7.7,2.4c-1.5,1.2-3,2.4-3.9,3.9
	c-1.2,1.8-2.1,3.9-2.4,6.3c0,0.6,0,1.2,0,1.5v6.3c0,3,0.9,5.7,2.4,7.7c1.2,1.5,2.4,3,3.9,3.9c2.4,1.5,5.1,2.4,7.7,2.4h10.1v-6.8H114
	c-4.2,0-7.1-3.3-7.1-7.4v-6.3C106.6,38.7,106.9,38.1,106.9,37.5z"/>
<path fill="#FFFFFF" d="M338.1,25v20.2c0,1.8-0.6,3.3-1.5,4.5c-1.2,1.8-3.6,3-6,3s-4.5-1.2-6-3c-0.9-1.2-1.5-2.7-1.5-4.5V25h-6.8
	v20.2c0,1.8,0.3,3.3,0.9,4.8c0.3,1.2,0.9,2.1,1.5,3c0.9,1.5,2.4,3,3.9,3.9l0.6,0.3c2.1,1.2,4.8,2.1,7.4,2.1c2.4,0,4.5-0.6,6.5-1.5
	c-0.3,0.3-0.3,0.6-0.6,1.2c-1.2,1.8-3.6,3-6,3h-8v6.8h8c3,0,5.7-0.9,7.7-2.4c1.5-1.2,3-2.4,3.9-3.9c0.6-0.9,1.2-2.1,1.5-3.3
	c0.6-1.5,0.9-3,0.9-4.8V25H338.1z"/>
<path fill="#FFFFFF" d="M292,48.2c0-2.1,1.5-3.6,3-4.2c0.3,0,0.6,0,1.2,0h10.4v8.6h-10.4C293.8,52.4,292,50.6,292,48.2z M312.2,31.3
	l-0.3,0.3L312.2,31.3c-1.2-2.4-3-4.2-5.4-5.4c-1.5-0.6-3-1.2-4.8-1.2h-10.7v6.8h11c2.4,0,4.2,1.8,4.2,4.2v1.2h-10.4
	c-1.5,0-3,0.3-4.5,0.9h-0.3c-2.4,1.2-4.2,3-5.4,5.4c-0.6,1.5-1.2,3-1.2,4.8c0,1.8,0.3,3.3,1.2,4.8c1.2,2.4,3,4.2,5.4,5.4
	c1.5,0.6,3,1.2,4.8,1.2h17.3V36C313.4,34.2,313.1,32.7,312.2,31.3z"/>
<path fill="#FFFFFF" d="M268.5,52.4c-4.2,0-7.4-3.3-7.4-7.4v-6.3c0-0.6,0-0.9,0-1.5c0.6-3.3,3.6-6,7.1-6c3.6,0,6.5,2.7,7.1,6
	c0,0.6,0.3,0.9,0.3,1.5v6.3C275.6,49.1,272.3,52.4,268.5,52.4z M282.5,37.5c-0.3-2.4-1.2-4.5-2.4-6.3c-0.9-1.5-2.4-3-3.9-3.9
	c-2.4-1.5-5.1-2.4-7.7-2.4c-3,0-5.7,0.9-7.7,2.4c-1.5,1.2-3,2.4-3.9,3.9c-1.2,1.8-2.1,3.9-2.4,6.3c0,0.6,0,1.2,0,1.5v29.5h6.8V57.1
	c2.1,1.2,4.8,2.1,7.4,2.1c3,0,5.7-0.9,7.7-2.4c1.5-0.9,3-2.4,3.9-3.9c1.5-2.4,2.4-5.1,2.4-7.7V39C282.5,38.7,282.5,38.1,282.5,37.5z
	"/>
<path fill="#FFFFFF" d="M244.1,39v6.3c0,4.2-3.3,7.4-7.1,7.4c-4.2,0-7.1-3.3-7.1-7.4V39c0-0.6,0-0.9,0.3-1.5c0.6-3.3,3.6-6,7.1-6
	s6.5,2.7,7.1,6C244.1,38.1,244.1,38.7,244.1,39z M250.9,37.5c-0.3-2.4-0.9-4.5-2.4-6.3c-0.9-1.5-2.4-3-3.9-3.9
	c-2.4-1.5-5.1-2.4-7.7-2.4s-5.7,0.9-7.7,2.4c-1.5,1.2-3,2.4-3.9,3.9c-1.2,1.8-2.1,3.9-2.4,6.3c0,0.6,0,1.2,0,1.5v6.3
	c0,3,0.9,5.7,2.4,7.7c1.2,1.5,2.4,3,3.9,3.9c2.4,1.5,5.1,2.4,7.7,2.4s5.7-0.9,7.7-2.4c1.5-0.9,3-2.4,3.9-3.9
	c1.5-2.4,2.4-5.1,2.4-7.7V39C250.9,38.7,250.9,38.1,250.9,37.5z"/>
<path fill="#FFFFFF" d="M214.9,25c-3,0-5.7,0.9-7.7,2.4c-1.5,1.2-3,2.4-3.9,3.9c-1.2,1.8-2.1,3.9-2.4,6.3c0,0.6,0,1.2,0,1.5v20.2
	h6.8V39c0-0.6,0-0.9,0.3-1.5c0.6-3.3,3.6-6,7.1-6h6.3v-6.8h-6.5V25z"/>
<polygon fill="#FFFFFF" points="189.9,59.2 196.7,59.2 196.7,34.2 189.9,34.2 189.9,45.8 "/>
<polygon fill="#C14E45" points="189.9,31.8 196.7,31.8 196.7,28.3 196.7,25 189.9,25 189.9,28.3 "/>
<path fill="#FFFFFF" d="M178.9,25v27.7h-7.4c-4.2,0-7.1-3.3-7.1-7.4V25h-6.8v20.2c0,3,0.9,5.7,2.4,7.7c0.9,1.5,2.4,3,3.9,3.9
	c2.4,1.5,5.1,2.4,7.7,2.4h14V24.7h-6.5V25z"/>
<path fill="#FFFFFF" d="M140.2,31.8c3.6,0,6.5,2.7,7.1,6c0,0.6,0,0.9,0,1.5v6.3c0,4.2-3.3,7.4-7.1,7.4c-4.2,0-7.1-3.3-7.1-7.4v-6.3
	c0-0.6,0-0.9,0.3-1.5C133.6,34.2,136.6,31.8,140.2,31.8z M154.2,37.5c-0.3-2.4-1.2-4.5-2.4-6.3c-0.9-1.5-2.4-3-3.9-3.9
	c-2.4-1.5-5.1-2.4-7.7-2.4s-5.7,0.9-7.7,2.4c-1.5,1.2-3,2.4-3.9,3.9c-1.2,1.8-2.1,3.9-2.4,6.3c0,0.6,0,1.2,0,1.5v6.3
	c0,3,0.9,5.7,2.4,7.7c1.2,1.5,2.4,3,3.9,3.9c2.4,1.5,5.1,2.4,7.7,2.4c2.7,0,5.1-0.6,7.1-2.1v11.3h6.8V39
	C154.2,38.7,154.2,38.1,154.2,37.5z"/>
<path fill="#C14E45" d="M40.8,59.5H24.1c-6.5-0.6-11.6-6-11.6-12.8v-8.9c0-2.4,0.6-4.5,1.8-6.3c2.4-4.2,6.8-6.8,12.5-6.8
	c5.4,0,10.1,2.7,12.5,6.8c1.2,1.8,1.8,3.9,1.8,6.3v21.7H40.8z M27.7,11.9L27.7,11.9L27.7,11.9L27.7,11.9L27.7,11.9L27.7,11.9
	L27.7,11.9L27.7,11.9h-0.3h-0.6l0,0l0,0h-0.6l0,0l0,0l0,0l0,0l0,0l0,0l0,0l0,0C12.5,12.5,0,22.6,0,36.3v10.4
	c0,13.7,12.5,24.1,26.2,24.4l0,0l0,0l0,0l0,0l0,0l0,0l0,0l0,0h0.6l0,0l0,0h0.6l0,0l0,0l0,0l0,0l0,0l0,0l0,0l0,0
	c13.7-0.6,26.2-10.7,26.2-24.4V36.3C53.9,22.6,41.1,12.5,27.7,11.9z"/>
<path fill="#C14E45" d="M649.5,0c20.2,0,36.6,16.7,36.6,37.2s-16.7,37.2-36.6,37.2c-20.2,0-36.6-16.7-36.6-37.2S629.2,0,649.5,0z"/>
<path fill="#E3A854" d="M698.3,0c-9.5,0-18.2,3.6-24.4,9.5c-1.5,1.2-2.7,2.4-3.6,3.9h7.4c0.9,1.2,1.8,2.7,2.7,3.9h-13.1
	c-0.9,1.2-1.5,2.7-2.1,3.9h17.3c0.6,1.2,1.2,2.7,1.5,3.9h-20.2c-0.3,1.2-0.9,2.7-1.2,3.9h22.3c0.6,2.7,0.9,5.1,0.9,7.7
	c0,4.2-0.6,8-1.8,11.9h-20.2c0.3,1.2,0.9,2.7,1.5,3.9h17.3c-0.6,1.5-1.2,2.7-2.1,3.9h-12.8c0.9,1.5,1.8,2.7,2.7,3.9h7.4
	c-1.2,1.5-2.4,2.7-3.6,3.9c6.5,6,15.2,9.5,24.4,9.5c20.2,0,36.6-16.7,36.6-37.2S718.5,0,698.3,0L698.3,0z"/>
<path fill="#FFFFFF" d="M678.3,31.5c-0.6,4.8-1.5,9.5-2.1,14.3l-0.3,1.2h3.9c1.5-9.2,1.8-11.3,3.9-11c0.3-1.8,0.9-3.6,1.5-4.5
	c-1.8-0.3-2.7,0.6-3.9,2.4c0-0.9,0.3-1.5,0.3-2.4L678.3,31.5L678.3,31.5z M710.8,31.5c-0.6,4.8-1.5,9.5-2.1,14.3l-0.3,1.2h3.9
	c1.5-9.2,1.8-11.3,3.9-11c0.3-1.8,0.9-3.6,1.5-4.5c-1.8-0.3-2.7,0.6-3.9,2.4c0-0.9,0.3-1.5,0.3-2.4L710.8,31.5L710.8,31.5z
	 M722.4,43.5c1.8,0,3.3-2.1,3.3-5.1c0-1.8-0.6-3-2.1-3c-1.8,0-3,2.1-3,5.1C720.3,42.6,721.2,43.5,722.4,43.5L722.4,43.5z M728.3,47
	h-3.9l0.3-1.5c-1.2,1.2-2.1,1.8-3.6,1.8c-3,0-4.8-2.4-4.8-6.3c0-5.1,3-9.5,6.5-9.5c1.5,0,2.7,0.6,3.9,2.1l0.9-5.4h3.9L728.3,47
	L728.3,47z M647.1,36.6c0,2.1,0.9,3.3,3,4.2c1.5,0.9,1.8,0.9,1.8,1.8c0,0.9-0.6,1.5-2.4,1.5c-1.2,0-2.4-0.3-3.6-0.6l-0.6,3.6
	c0.9,0.3,1.8,0.3,4.2,0.3c4.2,0,6.3-1.5,6.3-5.1c0-2.1-0.9-3.3-2.7-4.2c-1.8-0.9-1.8-0.9-1.8-1.8c0-0.9,0.6-1.2,1.8-1.2
	c0.9,0,1.8,0,2.7,0.3l0.6-3.6c-0.9-0.3-2.7-0.3-3.6-0.3C648.9,31.3,647.1,33.6,647.1,36.6L647.1,36.6z M672.4,37.5
	c0-0.3,0.3-2.7-1.8-2.7c-1.2,0-2.1,0.9-2.7,2.7H672.4L672.4,37.5z M674.5,46.7c-1.5,0.3-2.7,0.6-4.2,0.6c-4.5,0-6.8-2.4-6.8-6.8
	c0-5.4,3-9.2,6.8-9.2c3.3,0,5.4,2.1,5.4,5.7c0,1.2-0.3,2.1-0.6,3.9h-7.7c-0.3,2.4,1.2,3.3,3.3,3.3c1.5,0,2.7-0.3,4.2-0.9L674.5,46.7
	z M662.5,46.7c-1.2,0.3-1.8,0.6-3,0.6c-2.1,0-3-1.2-3-3.3c0-0.6,0.3-2.4,0.6-4.2l1.8-10.4h3.9l-0.6,2.4h2.1l-0.6,3.6h-2.1
	c-0.6,3-1.2,6.5-1.2,7.1c0,0.9,0.3,1.2,1.5,1.2c0.3,0,0.9,0,1.2-0.3L662.5,46.7L662.5,46.7z M707.2,47h-3.3v-1.5
	c-0.9,1.2-2.4,1.8-4.2,1.8c-2.1,0-3.6-1.8-3.6-4.2c0-3.6,2.7-6,6.8-6c0.3,0,0.9,0,1.5,0c0-0.6,0.3-0.6,0.3-0.9
	c0-0.9-0.6-1.5-2.7-1.5c-2.1,0-3.6,0.6-4.2,0.6l0.6-3.6c2.1-0.6,3.3-0.9,4.8-0.9c3.3,0,5.4,1.5,5.4,4.5c0,0.9,0,1.8-0.3,3
	C708.1,41.1,707.5,45.8,707.2,47L707.2,47z M704.5,40.2c-0.3,0-0.6,0-0.9,0c-2.4,0-3.3,0.9-3.3,2.4c0,0.9,0.6,1.5,1.5,1.5
	C703,44.1,704.2,42.6,704.5,40.2L704.5,40.2z M698,28.6l-0.6,4.2c-1.5-0.6-2.4-1.2-3.6-1.2c-3,0-5.1,3-5.1,7.1c0,3,1.5,4.5,3.6,4.5
	c0.9,0,2.1-0.3,3.3-0.9l-0.6,4.2c-1.5,0.3-2.4,0.6-3.6,0.6c-4.2,0-6.8-3-6.8-8c0-6.8,3.6-11.6,8.9-11.6
	C695.3,27.7,697.4,28.3,698,28.6L698,28.6z M644.7,47h-3.3v-1.5c-0.9,1.2-2.4,1.8-4.2,1.8c-2.1,0-3.6-1.8-3.6-4.2c0-3.6,2.7-6,6.8-6
	c0.3,0,0.9,0,1.5,0c0-0.6,0.3-0.6,0.3-0.9c0-0.9-0.6-1.5-2.7-1.5c-1.8,0-3.6,0.6-4.2,0.6l0.6-3.6c2.1-0.6,3.3-0.9,4.8-0.9
	c3.3,0,5.4,1.5,5.4,4.5c0,0.9,0,1.8-0.3,3C645.6,41.1,645,45.8,644.7,47L644.7,47z M642,40.2c-0.3,0-0.6,0-0.9,0
	c-2.4,0-3.3,0.9-3.3,2.4c0,0.9,0.6,1.5,1.5,1.5C640.8,44.1,642,42.6,642,40.2z M632.2,47h-3.9l2.4-14.6L625.6,47H623l-0.3-14.6
	L620.3,47h-3.6l3-18.8h5.7v11.6l3.9-11.6h6.3L632.2,47z"/>
<path fill="#5999CD" d="M870.3,64.9c7.4-6.8,11.9-16.7,11.9-27.7c0-11-4.5-20.8-11.9-27.7c-6.5-6-15.2-9.5-24.4-9.5
	c-20.2,0-36.6,16.7-36.6,37.2s16.4,37.2,36.6,37.2C855.1,74.4,863.8,70.8,870.3,64.9L870.3,64.9z"/>
<path fill="#C7504D" d="M894.7,0c-9.5,0-17.9,3.6-24.4,9.5c-1.2,1.2-2.7,2.4-3.6,3.9h7.4c0.9,1.2,1.8,2.7,2.7,3.9H864
	c-0.9,1.2-1.5,2.7-2.1,3.9h17.3c0.6,1.2,1.2,2.7,1.5,3.9h-20.2c-0.3,1.2-0.9,2.7-1.2,3.9h22.3c0.6,2.7,0.9,5.1,0.9,7.7
	c0,4.2-0.6,8-1.8,11.9h-20.2c0.3,1.2,0.9,2.7,1.5,3.9h17.3c-0.6,1.5-1.2,2.7-2.1,3.9h-12.8c0.9,1.5,1.8,2.7,2.7,3.9h7.4
	c-1.2,1.5-2.4,2.7-3.6,3.9c6.5,6,15.2,9.5,24.4,9.5c20.2,0,36.6-16.7,36.6-37.2C931.3,16.7,914.9,0,894.7,0L894.7,0z"/>
<path fill="#FFFFFF" d="M914.6,37.5c0-1.5-0.6-3-2.4-3c-2.4,0-3.9,2.7-3.9,5.4c0,2.1,0.9,3.6,2.7,3.6c0.9,0,3-1.5,3.6-3.9
	C914.6,38.7,914.6,38.1,914.6,37.5L914.6,37.5z M919.4,39.6c-0.6,5.1-4.2,7.4-8.9,7.4c-5.1,0-7.1-3.3-7.1-7.1c0-5.4,3.6-9.2,8.9-9.2
	c4.8,0,7.1,3,7.1,6.8C919.4,38.7,919.4,38.7,919.4,39.6L919.4,39.6z M868.5,36.9V36c0-1.2-0.9-2.1-2.1-2.1c-1.5,0-2.4,0.9-3,2.7h5.1
	V36.9z M870.9,46.1c-1.5,0.3-3,0.6-4.8,0.6c-5.1,0-7.7-2.4-7.7-6.8c0-5.4,3.3-9.2,8-9.2c3.9,0,6.3,2.1,6.3,5.7c0,1.2,0,2.4-0.6,3.9
	h-8.9c0,0.3,0,0.3,0,0.6c0,1.8,1.5,2.7,3.9,2.7c1.5,0,3-0.3,4.8-0.9L870.9,46.1L870.9,46.1z M852.7,39.6c-0.6,0-0.6,0-0.9,0
	c-2.7,0-3.9,0.9-3.9,2.4c0,0.9,0.6,1.5,1.5,1.5C851.3,43.5,852.7,42,852.7,39.6L852.7,39.6z M856,46.4h-3.9v-1.5
	c-1.2,1.2-2.7,1.8-4.8,1.8c-2.4,0-4.2-1.8-4.2-4.2c0-3.6,3-6,8-6c0.6,0,1.2,0,1.8,0c0.3-0.6,0.3-0.6,0.3-0.9c0-0.9-0.9-1.5-3-1.5
	c-1.2,0-2.7,0.3-3.9,0.3l-0.6,0.3h-0.3l0.6-3.3c2.4-0.6,3.9-0.9,5.4-0.9c3.9,0,6,1.5,6,4.5c0,0.9,0,1.2-0.3,3l-0.9,5.4l-0.3,0.9v0.9
	v0.6L856,46.4L856,46.4z M873.9,36c0,2.1,1.2,3.3,3.6,4.2c1.8,0.9,2.1,0.9,2.1,1.8c0,0.9-0.9,1.5-2.7,1.5c-1.5,0-2.7-0.3-4.2-0.6
	l-0.6,3.6h0.3l0.9,0.3c0.3,0,0.6,0,1.2,0c1.2,0,1.8,0,2.4,0c4.8,0,7.1-1.5,7.1-5.1c0-2.1-0.9-3.3-3.3-4.2c-1.8-0.9-2.1-0.9-2.1-1.8
	c0-0.9,0.6-1.2,2.4-1.2c0.9,0,2.1,0,3.3,0.3l0.6-3.6c-1.2,0-3-0.3-4.2-0.3C875.7,30.7,873.9,33,873.9,36L873.9,36z M905.1,31.3
	c-0.3,0-0.3,0-0.6-0.3h-0.3c-0.3,0-0.3,0-0.6,0c-1.5,0-2.7,0.6-3.9,2.4l0.3-2.4h-4.2l-2.7,15.2h4.5c1.5-9.2,2.4-11,4.5-11h0.6h0.6
	L905.1,31.3L905.1,31.3z M892,46.1c-1.2,0.3-2.1,0.6-3.3,0.6c-2.4,0-3.6-1.2-3.6-3.3c0-0.3,0-0.9,0-1.5l0.3-1.5l0.3-1.2l2.1-11.6
	h4.5l-0.6,3.6h2.4l-0.6,3.6h-2.4l-1.2,6.3c0,0.3,0,0.6,0,0.6c0,0.9,0.6,1.2,1.5,1.2c0.6,0,0.9,0,1.2,0L892,46.1L892,46.1z
	 M841.1,46.4h-4.5l2.7-14.6l-6.3,14.6h-4.2l-0.6-14.3l-2.7,14.3h-4.2l3.6-18.8h7.1l0.3,11.6l5.1-11.6h7.4L841.1,46.4z"/>
<polygon fill="#4B548D" points="450.9,61.9 457.8,18.8 469.1,18.8 462.2,61.9 "/>
<path fill="#4B548D" d="M503.3,19.6c-2.4-0.9-5.7-1.8-10.1-1.8c-11.3,0-19,6-19,14.3c0,6.3,5.7,9.5,9.8,11.9c4.5,2.1,6,3.6,6,5.4
	c0,3-3.6,4.2-6.8,4.2c-4.5,0-6.8-0.6-10.7-2.4l-1.5-0.6l-1.5,9.8c2.7,1.2,7.4,2.4,12.5,2.4c11.9,0,19.6-6,19.6-14.9
	c0-4.8-3-8.6-9.5-11.9c-3.9-2.1-6.3-3.3-6.3-5.4c0-1.8,2.1-3.9,6.5-3.9c3.6,0,6.5,0.9,8.3,1.8l0.9,0.6L503.3,19.6z"/>
<path fill="#4B548D" d="M532.2,18.8h-8.6c-2.7,0-4.8,0.9-6,3.6l-17,39.6h11.9l2.4-6.5h14.6l1.5,6.5h10.4L532.2,18.8z M518.2,46.4
	l4.5-12.2c0,0,0.9-2.7,1.5-4.2l0.9,3.6c0,0,2.1,10.4,2.7,12.5h-9.5V46.4z"/>
<path fill="#4B548D" d="M441.4,18.8l-11.6,31.5c0,0-9.2-22.3-16.4-26.2l10.1,37.8h11.9l17.9-43.2L441.4,18.8L441.4,18.8z"/>
<path fill="#EAA944" d="M420,18.8h-18.2l-0.3,0.9c14.3,3.6,23.5,12.2,27.4,22.6L425,22.3C424.4,19.6,422.4,18.8,420,18.8z"/>
</svg>
